ply
format ascii 1.0
comment Created by Blender 2.61 (sub 0) - www.blender.org, source file: ''
element vertex 492
property float x
property float y
property float z
property float nx
property float ny
property float nz
element face 980
property list uchar uint vertex_indices
end_header
-0.696680 0.094214 0.144193 -0.793817 0.085116 -0.602130
-0.687892 0.083375 0.147825 0.222877 -0.758751 -0.612049
-0.716535 0.066911 0.170831 -0.901547 -0.432417 -0.013733
0.004431 0.117476 -0.100770 0.202612 0.199835 -0.958617
0.087930 0.014983 -0.124486 0.208075 -0.261666 -0.942442
0.021358 -0.006952 -0.091810 -0.630299 -0.427839 -0.647755
0.005139 -0.025752 0.085271 -0.024964 -0.798578 0.601337
0.037532 -0.035676 0.069737 -0.568346 -0.555284 0.607105
0.044609 0.030362 0.129424 0.266518 -0.383282 0.884335
-0.284248 -0.961669 0.222863 -0.814264 0.574480 0.082949
-0.284575 -0.961965 0.198868 -0.304392 -0.130284 0.943571
-0.284804 -0.983984 0.200499 -0.081118 -0.981384 0.173956
-0.051592 0.883070 0.095964 -0.559832 -0.165502 0.811884
-0.042578 0.893711 0.108455 -0.381451 -0.470565 0.795618
-0.057415 0.903885 0.101245 -0.777551 0.069308 0.624958
0.131582 -0.464576 -0.013195 -0.882870 -0.061495 -0.465529
0.171056 -0.415625 -0.040524 -0.114994 0.024506 -0.993042
0.167278 -0.593097 -0.092229 -0.493667 0.028108 -0.869167
-0.264644 -0.974464 0.222967 0.010956 -0.799463 0.600574
-0.240452 -0.984965 0.219877 0.193152 -0.868496 0.456435
-0.755418 0.063151 0.170153 -0.199377 -0.979492 0.028687
-0.760315 0.075619 0.161699 -0.891598 0.019074 -0.452376
-0.723881 0.084636 0.147680 0.355419 -0.834712 -0.420606
0.146297 0.495924 0.117431 0.471267 -0.262581 0.841975
0.209458 0.542047 0.068831 0.503708 -0.302805 0.809046
0.191985 0.598489 0.079607 0.350444 0.288125 0.891140
0.236680 -0.077936 0.044218 0.975066 0.115757 0.189154
0.185441 0.168188 0.012084 0.981445 0.191198 0.012513
0.169922 0.154819 0.072047 0.792993 0.140294 0.592792
0.023152 0.850562 -0.093325 0.197455 -0.397504 -0.896084
-0.038547 0.876627 -0.091816 -0.489486 -0.241005 -0.838008
-0.016818 0.926394 -0.104387 -0.244575 0.255440 -0.935362
-0.806988 0.116681 0.155127 -0.174017 -0.410382 0.895138
-0.799334 0.113586 0.144188 0.276437 -0.960997 -0.004822
-0.773319 0.145576 0.139356 -0.075076 0.492630 0.866970
-0.064841 0.872646 0.083226 -0.890744 -0.054353 0.451186
-0.083205 0.888729 0.004162 -0.995117 -0.026795 0.094699
-0.079209 0.865370 0.010594 -0.988556 -0.143406 0.046358
0.810627 0.090063 0.155248 0.979369 0.130467 -0.154149
0.799685 0.081687 0.172470 0.155766 -0.365093 0.917814
0.802076 0.077837 0.158008 0.272744 -0.938994 -0.209418
0.226409 -0.110553 -0.004366 0.906888 0.069704 -0.415540
0.226271 -0.387738 -0.022933 0.723167 0.116886 -0.680685
0.187379 -0.160527 -0.063668 0.528459 -0.002716 -0.848933
-0.023758 0.997799 -0.050984 -0.323038 0.839290 -0.437269
-0.076387 0.958400 -0.007244 -0.877987 0.476730 -0.043092
-0.041943 0.985659 0.063662 -0.541490 0.752708 0.374371
0.263867 0.592727 -0.074609 0.494186 0.311655 -0.811548
0.184686 0.553719 -0.089485 0.271798 -0.157048 -0.949431
0.201078 0.640940 -0.079566 0.314615 0.409284 -0.856410
-0.070728 0.525097 0.143386 -0.097171 0.088565 0.991302
-0.189168 0.572658 0.081840 -0.443709 0.061983 0.894009
-0.134661 0.494601 0.117301 -0.484390 -0.290078 0.825343
-0.208469 -0.954930 0.094012 0.731254 -0.674734 -0.099857
-0.265561 -0.990300 0.050084 -0.153081 -0.987884 -0.024598
-0.191685 -0.981876 -0.037908 0.783013 -0.538682 -0.310892
-0.119976 -0.094464 0.128449 0.028413 0.018281 0.999420
-0.171696 -0.334931 0.110385 -0.377422 -0.049165 0.924711
-0.113190 -0.313421 0.111386 0.456282 -0.180761 0.871242
0.026096 0.687026 0.067873 0.377758 0.305460 0.874050
0.032569 0.648043 0.091419 0.024201 0.492630 0.869869
0.066075 0.701397 0.036116 0.528275 0.512345 0.677023
-0.211613 -0.953417 0.223787 0.461135 0.861476 0.212470
-0.228289 -0.955904 0.245726 -0.373638 0.923338 0.088260
-0.207064 -0.972954 0.276618 0.792688 -0.061190 0.606525
-0.206021 0.538065 0.055820 -0.184149 -0.602222 0.776788
-0.146727 0.461275 0.082702 -0.739982 -0.286081 0.608722
0.812226 0.112459 0.146314 -0.043916 -0.969237 0.242103
0.823955 0.117545 0.140932 0.795770 -0.557207 -0.237159
0.812588 0.123282 0.154943 0.027284 -0.045961 0.998566
0.035512 1.005071 0.030424 0.313944 0.937407 0.150639
-0.016794 0.968051 0.098740 -0.209174 0.623463 0.753319
0.053249 0.968111 0.087754 0.535264 0.603717 0.590747
-0.663490 0.127538 0.119061 0.107944 -0.733390 -0.671163
-0.045645 0.378146 0.138445 -0.247261 -0.023957 0.968627
0.052114 0.369704 0.138082 0.230628 -0.024995 0.972716
0.002960 0.545498 0.121213 -0.009369 0.171148 0.985168
0.275625 -0.904787 0.054796 0.907132 0.370708 0.199103
0.289419 -0.957558 0.186859 0.141057 0.956603 0.254921
0.308759 -0.953268 0.156913 0.414197 0.891568 0.183111
-0.154708 0.205063 -0.035477 -0.787011 0.217414 -0.577319
-0.195889 -0.080647 -0.036668 -0.825434 0.051729 -0.562090
-0.215073 -0.007153 0.023818 -0.988983 0.146825 0.018006
0.113153 -0.405231 0.053090 -0.799860 -0.320627 0.507309
0.179611 -0.522878 0.064248 -0.383618 -0.163030 0.908963
0.167253 -0.442099 0.093704 -0.309671 -0.261971 0.914029
0.165311 0.684093 0.025694 0.230811 0.870022 0.435591
0.140684 0.690070 -0.000388 0.298593 0.925199 0.234077
-0.078079 0.909320 -0.056437 -0.855068 0.073000 -0.513321
-0.681797 0.128640 0.144459 -0.211859 0.186316 0.959349
-0.682037 0.106601 0.154319 -0.066683 0.311289 0.947966
0.141081 -0.617942 -0.030966 -0.968749 -0.186743 -0.163091
0.157090 -0.635443 0.036966 -0.787011 -0.185522 0.588336
0.129706 -0.488114 0.017193 -0.952574 -0.207343 0.222633
-0.030698 0.665795 0.081613 -0.143925 0.500290 0.853786
-0.061706 0.745407 -0.022332 -0.818262 0.571642 -0.060030
-0.149315 0.691198 -0.024297 -0.357952 0.872646 0.332163
-0.001728 0.709204 0.072449 -0.246986 0.093142 0.964507
-0.048838 0.777379 0.029570 -0.901395 -0.292276 0.319376
0.005747 0.643109 0.088011 -0.017548 0.394055 0.918882
-0.720342 0.089157 0.157901 0.688650 -0.398694 0.605609
0.259288 -0.550692 -0.071073 0.663167 0.189703 -0.723991
0.240017 -0.393121 0.021787 0.988495 0.083865 0.125767
-0.090929 0.304406 0.103200 -0.587268 -0.006256 0.809320
-0.149860 0.287276 0.040692 -0.954650 0.040407 0.294870
-0.143599 0.153596 0.093500 -0.646046 0.060488 0.760888
0.054628 0.468551 0.134707 0.054872 -0.060762 0.996612
0.061986 0.535198 0.143117 -0.001953 0.135929 0.990692
0.246566 0.633118 0.050987 0.473128 0.451674 0.756371
0.002839 0.007616 0.116373 -0.142521 -0.539048 0.830103
-0.049755 0.016204 0.097500 -0.028748 -0.247017 0.968566
0.143000 0.401753 -0.079581 0.542192 -0.263009 -0.797998
0.129213 0.286758 -0.034882 0.633931 -0.029511 -0.772790
0.062121 0.322637 -0.080027 0.296579 -0.185095 -0.936888
-0.235249 -0.790220 0.053233 -0.445845 0.072970 0.892117
-0.213450 -0.887738 0.076392 0.442946 0.510361 0.737053
-0.202183 -0.804845 0.048533 0.675222 0.022950 0.737236
0.307411 -0.982760 0.201381 0.432569 -0.891964 0.131260
0.313602 -0.976746 0.183834 0.473525 0.778497 0.411878
0.316704 -0.965400 0.208295 0.917783 0.372845 0.136479
0.232044 0.522393 0.059543 -0.508591 -0.668844 0.542161
0.298886 0.436096 0.063192 -0.580187 -0.472365 0.663472
0.357498 0.428901 0.076570 0.188238 -0.106601 0.976287
0.763024 0.062412 0.172561 -0.035981 -0.944670 0.325999
0.734004 0.085082 0.161199 -0.716788 -0.567949 0.404462
0.704777 0.115289 0.123417 -0.067476 -0.782189 -0.619343
0.051260 0.875581 0.106827 0.413587 0.344707 0.842647
0.024118 0.885092 0.105656 0.331339 -0.114444 0.936521
0.024440 0.849701 0.117665 0.595782 0.179937 0.782708
0.233977 -0.965904 0.085564 -0.578173 -0.814020 -0.055177
0.203352 -0.981875 0.200504 -0.853023 -0.508225 0.118351
0.208548 -0.928330 0.049179 -0.981628 -0.116947 0.150548
0.258292 -0.985201 0.127480 -0.197974 -0.977172 -0.076998
0.328390 -0.983907 0.176607 0.630329 -0.765831 -0.127110
-0.621167 0.176561 0.083149 0.277596 -0.702658 -0.655110
-0.600230 0.180531 0.115173 0.775048 -0.327433 0.540422
-0.629755 0.130691 0.128474 0.687216 -0.722892 0.071383
-0.282631 0.624939 -0.001738 -0.759728 0.635792 0.136204
-0.177200 0.682084 0.022177 -0.269265 0.878445 0.394696
-0.207389 0.668060 -0.048260 -0.467238 0.763024 -0.446608
-0.043055 0.076040 0.127826 -0.302408 -0.209174 0.929929
0.080916 0.048033 0.109661 0.282144 -0.145848 0.948210
0.132808 -0.053772 0.125410 0.054628 0.051881 0.997131
0.160063 0.068196 0.101451 0.403119 0.217872 0.888791
0.130502 -0.244989 0.125157 -0.169439 -0.081545 0.982147
0.059667 0.882694 0.096612 0.581713 -0.078127 0.809595
0.048656 0.894918 0.111182 0.305643 -0.472610 0.826533
0.203965 -0.809675 0.033886 -0.903745 -0.009857 0.427931
0.192582 -0.877235 0.012179 -0.996063 -0.086856 -0.016358
0.218905 -0.865889 0.065263 -0.477737 0.297311 0.826624
-0.246529 0.584983 -0.077656 -0.380779 0.159490 -0.910794
-0.279232 0.608607 -0.041108 -0.673086 0.494095 -0.550249
0.004233 0.263574 -0.070798 -0.073672 -0.015778 -0.997131
0.028775 0.247511 -0.075121 -0.013977 0.030122 -0.999420
-0.019248 -0.004461 -0.106142 0.474136 -0.449965 -0.756767
-0.031151 0.087654 -0.128851 0.141057 0.078829 -0.986847
-0.002646 0.101253 -0.111851 0.698782 0.050813 -0.713492
0.268310 -0.940419 -0.025136 0.872494 0.108860 -0.476272
0.280970 -0.886644 -0.011794 0.932585 0.037873 -0.358867
0.079705 0.838474 0.001830 0.903623 -0.312510 -0.292825
0.057557 0.776980 0.031760 0.854732 -0.313944 0.413312
-0.191269 -0.817091 0.002941 0.992828 -0.085116 0.083590
-0.182268 -0.876825 0.012303 0.985565 -0.163976 -0.041688
-0.199002 -0.878370 -0.030007 0.872799 -0.058901 -0.484451
-0.023773 0.793463 -0.050995 -0.331736 -0.243843 -0.911283
0.036691 0.805733 -0.056537 0.295999 -0.402173 -0.866359
0.718786 0.129731 0.128844 0.409680 -0.700888 -0.583850
0.726118 0.108850 0.156228 0.054445 0.498856 0.864956
0.755874 0.083409 0.176517 -0.111942 0.278695 0.953795
-0.816898 0.125777 0.145907 -0.923978 0.335124 0.184179
-0.742433 0.170357 0.118253 -0.645131 0.689474 -0.329234
-0.671512 0.097650 0.147297 0.796045 -0.564135 0.219153
0.141288 0.093509 -0.089340 0.606494 0.118259 -0.786218
0.099859 -0.053717 -0.079284 -0.139225 -0.309030 -0.940794
-0.228581 -0.404512 0.025426 -0.985168 0.072542 0.155309
-0.198881 -0.520161 0.073015 -0.273537 -0.107028 0.955870
-0.199530 -0.403019 0.084513 -0.714805 -0.078036 0.694937
0.027390 -0.032795 0.030153 -0.620380 -0.783624 -0.032044
-0.024258 -0.040949 0.065494 0.627247 -0.590411 0.507859
0.005554 -0.014199 -0.044324 -0.024323 -0.919614 -0.392041
0.273218 -0.985679 0.217953 0.116825 -0.915952 0.383831
0.296012 -0.974873 0.205825 0.092135 -0.112461 0.989349
0.296778 -0.975173 0.228219 0.807764 -0.586474 -0.059267
0.302994 -0.974214 0.239709 -0.613422 0.399609 0.681143
0.318107 -0.973099 0.241581 0.704672 0.271950 0.655293
0.155318 0.295059 -0.002625 0.948454 -0.026826 -0.315744
0.156182 0.296117 0.048342 0.921598 0.018708 0.387646
0.748661 0.215566 0.115133 0.375835 -0.748650 -0.546098
0.769132 0.226725 0.123109 0.679281 0.187750 -0.709433
0.786788 0.225946 0.139723 0.890774 0.370037 -0.263710
0.775281 0.077288 0.173952 0.884396 0.197729 0.422742
-0.220811 -0.823389 -0.050214 -0.255715 -0.125217 -0.958586
-0.216066 -0.586440 -0.097498 -0.282205 0.045686 -0.958251
-0.150226 -0.604753 -0.086730 0.637928 -0.079745 -0.765923
0.824785 0.128672 0.143589 0.902432 0.419782 0.096744
0.794042 0.139852 0.122020 0.473342 0.101932 -0.874935
0.719375 0.189028 0.097712 0.628620 0.100772 -0.771111
0.257705 -0.961064 0.243783 -0.755272 0.465407 0.461409
0.268349 -0.957205 0.208364 0.031068 0.995880 0.085086
0.248993 -0.956655 0.209093 0.263283 0.873348 0.409803
0.220016 -0.900688 -0.046876 -0.449843 -0.008484 -0.893063
-0.261191 -0.558939 -0.054176 -0.855495 0.149693 -0.495651
-0.213770 -0.392300 -0.027152 -0.697195 0.137791 -0.703482
0.726856 0.160178 0.101658 0.289102 -0.382855 -0.877377
0.781880 0.130758 0.124541 -0.127140 -0.769738 -0.625538
0.062631 0.108523 -0.121012 -0.004242 0.205023 -0.978729
0.354912 0.484015 0.065562 0.477432 0.459212 0.749077
0.183755 -0.398057 0.103872 0.105380 -0.170934 0.979614
0.089260 0.946666 0.009525 0.929777 0.362468 0.063906
0.088761 0.921888 -0.053167 0.903867 0.127079 -0.408490
0.050858 0.981251 -0.063153 0.472335 0.699454 -0.536302
0.633536 0.202385 0.120256 -0.175451 0.309275 0.934629
0.611532 0.177414 0.105448 -0.731773 -0.643880 0.223273
0.633459 0.173666 0.138110 -0.401929 0.223701 0.887906
-0.780479 0.141294 0.120251 -0.497757 0.131352 -0.857295
-0.813049 0.117583 0.140234 -0.656636 -0.570727 -0.493027
0.219155 -0.636489 -0.093188 0.266121 -0.098880 -0.958831
0.218618 -0.827511 -0.053309 -0.306284 -0.155248 -0.939177
0.365490 0.386367 0.059405 -0.241920 -0.254311 0.936338
0.405480 0.420346 0.042746 0.426466 0.554613 0.714469
0.694423 0.083202 0.152855 -0.653462 -0.756920 -0.000336
0.685519 0.106975 0.129014 0.205145 -0.476455 -0.854915
0.721618 0.070701 0.163799 0.577929 -0.452895 -0.678823
0.099070 0.506001 -0.111870 0.185827 -0.015992 -0.982421
0.187693 0.506978 -0.070400 0.695669 -0.238075 -0.677725
-0.247950 -0.971742 0.238401 0.710898 -0.624317 0.323740
0.332469 -0.964133 0.171407 0.812555 0.575701 0.091067
0.787177 0.214031 0.143941 0.685507 -0.685415 0.245399
0.743874 0.219867 0.135257 0.399884 -0.604480 -0.688955
-0.274190 -0.589652 0.003468 -0.963500 0.065554 0.259529
-0.050502 0.806108 -0.034055 -0.785852 -0.246406 -0.567186
0.236241 -0.966445 0.281304 0.061312 0.790002 0.610004
0.257372 -0.972559 0.270642 0.915830 0.143742 0.374920
0.235799 -0.954232 0.224590 0.379864 0.869472 0.315683
0.774691 0.234788 0.153392 0.161687 0.557573 0.814203
-0.085476 0.914976 -0.027054 -0.992157 0.078372 -0.097324
-0.201673 -0.933196 0.071734 0.991852 0.002747 0.127171
0.775696 0.106434 0.132463 0.294290 -0.226508 -0.928465
-0.076042 0.207218 -0.069272 -0.313639 0.180456 -0.932218
-0.027193 0.227361 -0.076722 -0.055513 0.143773 -0.988037
-0.637139 0.224385 0.065838 -0.406873 0.233131 -0.883206
-0.462279 0.398447 0.029806 -0.619434 0.770898 -0.148167
-0.402574 0.396477 -0.024930 -0.494919 0.286691 -0.820276
0.738736 0.178294 0.122537 0.423780 0.703238 0.570788
0.784279 0.146594 0.138435 0.010102 0.404218 0.914579
0.229446 -0.899675 0.098426 -0.349834 0.794122 0.496933
0.239739 0.537843 -0.075587 0.043275 -0.392773 -0.918607
-0.152239 -0.010492 -0.071545 0.461013 -0.559282 -0.688925
-0.162268 -0.172611 -0.070671 -0.396832 -0.029633 -0.917386
0.305807 -0.987718 0.238989 -0.148625 -0.842402 0.517899
-0.269582 -0.917982 0.078670 -0.740135 0.665792 0.094119
-0.262603 -0.977251 -0.036570 -0.767083 -0.377667 -0.518540
-0.318782 -0.963720 0.146751 -0.967132 0.226112 -0.116153
-0.106827 0.058822 -0.117538 -0.413404 -0.003082 -0.910520
-0.247913 0.623382 0.048594 -0.521622 0.453719 0.722495
-0.218303 0.549781 0.062063 -0.177282 -0.122837 0.976440
0.749649 0.090889 0.144364 0.582202 -0.141667 -0.800562
0.772323 0.068293 0.166908 0.743248 -0.544328 -0.388897
-0.028211 0.907847 0.120943 -0.303049 -0.011994 0.952879
0.088698 0.870502 -0.018939 0.956572 -0.211524 -0.200507
0.065695 0.849616 -0.057512 0.769799 -0.302072 -0.562243
-0.635697 0.238716 0.088759 -0.208136 0.931852 0.297159
-0.632951 0.203711 0.121363 0.301004 0.524094 0.796655
-0.373579 0.308523 0.009300 0.537309 -0.760643 -0.364238
-0.642425 0.184770 0.075930 -0.125828 -0.424451 -0.896634
0.692925 0.127412 0.145482 0.168706 0.246132 0.954405
0.717879 0.139342 0.140410 0.107883 0.279641 0.954009
0.445317 0.394271 0.069077 0.223304 0.612232 0.758446
0.067278 0.902740 0.102883 0.752953 -0.019929 0.657735
0.206522 -0.350558 0.092090 0.699973 -0.015015 0.713981
0.215539 -0.484727 0.068399 0.532762 -0.078249 0.842616
-0.270770 -0.886695 -0.010396 -0.945402 -0.051119 -0.321818
-0.220313 -0.913641 -0.051491 0.001953 0.106235 -0.994324
0.767329 0.096688 0.146676 -0.608509 -0.785394 0.113315
0.320248 -0.976883 0.209662 -0.375622 0.262093 0.888913
0.325494 -0.966914 0.190229 -0.045930 0.963164 0.264931
0.718295 0.061319 0.176423 -0.072970 -0.859920 0.505173
0.695508 0.101922 0.155912 -0.064608 0.362560 0.929685
0.421453 0.433038 0.005879 0.779687 0.592669 -0.201910
0.040334 0.286745 0.138098 0.150822 0.023743 0.988250
0.137060 0.147452 0.100292 0.562029 -0.086459 0.822565
0.102854 0.301054 0.102197 0.587909 0.002686 0.808893
0.044915 -0.057952 -0.033220 -0.789941 -0.469405 -0.394421
-0.279040 -0.978342 0.228974 -0.452956 -0.858119 -0.241707
-0.192590 -0.980155 0.199096 0.867031 -0.481826 0.126591
-0.723807 0.102845 0.133202 -0.416211 -0.190191 -0.889126
-0.197390 0.517909 -0.030337 -0.252846 -0.951048 -0.177618
-0.311685 0.389055 0.042407 0.679159 -0.543107 0.493667
-0.380231 0.301468 0.067369 0.576678 -0.556993 0.597613
-0.702840 0.140460 0.109222 -0.220893 -0.489700 -0.843410
-0.758237 0.114421 0.152917 0.003540 0.412061 0.911130
-0.767068 0.118211 0.140554 -0.688620 0.713157 -0.131046
-0.793706 0.095923 0.166745 -0.541612 0.435591 0.718925
-0.234899 -0.988455 0.266134 -0.253670 -0.942808 0.216102
-0.231969 -0.968025 0.285849 -0.214393 0.263375 0.940550
-0.246251 -0.970351 0.265267 -0.968902 0.187719 0.161107
0.369995 0.480414 -0.037402 0.616779 0.298807 -0.728172
0.401036 0.384108 -0.030857 0.264138 0.062685 -0.962432
0.241975 -0.778444 0.055325 0.155553 0.018159 0.987640
0.283129 -0.576611 0.004310 0.975585 0.073061 0.207007
-0.171235 0.186995 0.023553 -0.974273 0.201086 0.101688
-0.160860 0.130268 0.075400 -0.787378 0.141667 0.599933
-0.045308 0.471461 0.134238 -0.037660 -0.063875 0.997223
0.192762 -0.098237 0.105050 0.598285 0.051973 0.799585
-0.363730 0.383110 0.063351 0.111179 0.043123 0.992859
-0.038653 -0.060250 -0.034459 0.778314 -0.469497 -0.416822
-0.095608 -0.045509 -0.080721 0.061708 -0.303629 -0.950774
-0.030921 0.216931 0.140366 -0.161077 0.043062 0.985992
-0.003666 0.259161 0.131383 0.149602 -0.206763 0.966857
-0.029278 0.319590 0.138162 -0.112064 -0.021912 0.993439
-0.260911 -0.885752 0.048296 -0.878780 0.240761 0.412000
-0.259783 -0.930670 -0.014237 -0.923521 0.080508 -0.374981
-0.022081 0.848384 0.118483 -0.562517 0.070009 0.823786
0.006033 0.847854 0.154647 0.023347 -0.010102 0.999664
0.004856 0.892972 0.118907 0.028901 -0.075564 0.996704
-0.786495 0.075722 0.164097 0.068728 -0.890530 0.449629
-0.140112 0.294392 -0.013028 -0.887661 -0.011414 -0.460311
0.385621 0.315950 0.076281 -0.663289 -0.338878 0.667196
0.389489 0.305136 0.010872 -0.560228 -0.770562 -0.303812
-0.120400 0.095485 0.103037 -0.013764 0.213141 0.976897
-0.187050 -0.071325 0.097671 -0.677084 0.100955 0.728935
0.007907 0.753197 -0.046319 0.111270 0.238685 -0.964690
-0.031573 0.744840 -0.055676 -0.223975 0.448073 -0.865474
0.034455 0.909054 0.121590 0.238807 -0.018708 0.970855
-0.749161 0.239453 0.132058 -0.117679 0.992767 -0.023499
-0.715732 0.216882 0.125542 -0.126041 -0.384045 0.914640
0.342292 0.360516 -0.009709 -0.656606 -0.614734 -0.436903
0.729581 0.238457 0.099068 0.402387 0.594012 -0.696554
0.647843 0.222607 0.065182 0.374401 0.145024 -0.915830
0.651349 0.238501 0.095051 0.225379 0.935606 0.271676
-0.705707 0.083218 0.174776 -0.275460 0.580035 0.766594
-0.706199 0.062160 0.178140 0.058596 -0.788995 0.611560
-0.322899 -0.978410 0.201383 -0.876492 0.175085 0.448378
-0.309125 -0.976574 0.208945 0.384838 0.231178 0.893521
-0.308055 -0.962548 0.177809 -0.644948 0.742271 0.181738
-0.264950 -0.821268 0.001037 -0.989441 0.075350 -0.123753
-0.145437 -0.517714 0.052989 0.703513 -0.227271 0.673330
-0.160721 -0.426536 0.101305 0.139927 -0.247078 0.958831
0.016614 0.841024 0.134034 0.877346 -0.222144 0.425275
0.014376 0.830420 0.128189 0.514817 -0.310312 0.799127
0.303576 -0.959433 0.209558 -0.227729 0.891049 0.392590
-0.297686 -0.977964 0.262190 -0.869472 -0.087832 0.486068
-0.280932 -0.972286 0.267024 0.282937 0.323740 0.902829
-0.324680 0.549320 -0.019719 -0.836451 0.516709 -0.182562
0.331826 -0.981131 0.206521 0.735008 -0.189032 0.651143
0.268782 -0.973025 0.234513 0.081729 -0.938444 0.335551
0.275938 -0.958695 0.239783 0.700247 0.711692 0.055818
0.284473 -0.985230 0.269664 0.615986 -0.735710 0.281472
0.203663 0.509435 -0.044627 0.805017 -0.545122 -0.233955
0.159735 0.466756 0.083378 0.757500 -0.308817 0.575152
-0.056088 0.731192 0.021384 -0.971129 -0.126591 0.202124
-0.683680 0.125295 0.116866 0.097690 -0.815241 -0.570788
0.210673 0.519210 -0.026181 0.167882 -0.984893 -0.041871
-0.251198 -0.985829 0.118129 0.252602 -0.966033 -0.054079
-0.315476 -0.984879 0.174648 -0.535844 -0.839595 -0.088931
0.722596 0.202330 0.118049 0.778069 -0.117313 -0.617084
-0.223073 -0.986485 -0.060848 0.026063 -0.581286 -0.813257
-0.706035 0.187976 0.095129 -0.514634 0.049043 -0.855983
-0.716865 0.237768 0.097730 -0.397015 0.599963 -0.694540
0.301576 0.558597 0.029793 0.588000 0.470260 0.658071
0.332157 0.551913 -0.012950 0.800531 0.598346 -0.033174
-0.774681 0.128526 0.127003 0.045839 -0.752922 -0.656484
-0.718963 0.152880 0.111755 -0.122257 -0.559313 -0.819880
-0.127035 -0.615716 -0.000833 0.974425 -0.182653 0.130833
-0.121145 -0.482747 -0.004485 0.970733 -0.131718 -0.200781
-0.231735 -0.232579 0.045763 -0.979675 0.023347 0.199164
0.043963 0.904050 -0.100197 0.431623 0.019593 -0.901822
-0.315602 -0.991321 0.201415 -0.074343 -0.923185 0.377087
-0.181109 0.516333 -0.070710 -0.491531 -0.423200 -0.761071
-0.073150 0.510085 -0.114908 -0.189795 -0.138188 -0.972045
-0.111711 0.389358 -0.088010 -0.421186 -0.266579 -0.866878
0.035818 0.752841 0.104625 0.532670 -0.756340 0.379681
0.072540 0.786216 0.052774 0.877194 -0.475661 0.065096
0.048238 0.815698 0.111546 0.665181 -0.100986 0.739799
-0.374575 0.349562 -0.035636 0.393780 -0.301218 -0.868435
-0.366536 0.378004 -0.033827 0.109714 -0.205542 -0.972472
-0.037079 0.790810 0.106061 -0.711478 -0.211798 0.670003
-0.040590 0.875278 0.107595 -0.418226 0.334849 0.844356
0.623925 0.257005 0.075606 0.659017 0.699637 -0.275918
0.035491 0.230065 0.140682 0.097385 0.039460 0.994446
0.642152 0.127884 0.130068 -0.725394 -0.677084 0.123753
-0.763222 0.234259 0.153978 -0.157170 0.480392 0.862819
0.714952 0.146243 0.104817 0.263527 -0.490005 -0.830897
0.120988 -0.225082 -0.072104 -0.303232 -0.151616 -0.940764
0.228865 -0.975003 0.288512 -0.407422 -0.127049 0.904324
0.007695 0.753355 0.073567 -0.002838 -0.859676 0.510788
0.062839 -0.262637 0.038358 -0.974303 -0.222449 0.034944
-0.716704 0.123028 0.134645 -0.823023 0.341136 -0.454115
-0.726020 0.106326 0.156351 -0.242409 0.587725 0.771844
-0.709213 0.138240 0.140382 -0.056093 0.423322 0.904202
0.250301 -0.984997 0.219516 -0.040223 -0.893246 0.447737
-0.233089 -0.981276 0.228345 -0.602557 -0.783349 0.152379
-0.776649 0.224061 0.138282 -0.933866 0.223212 -0.279305
-0.749908 0.218992 0.116683 -0.544053 -0.426954 -0.722282
0.006956 0.585840 -0.115745 0.053621 0.113071 -0.992126
-0.075892 0.678235 -0.096896 -0.101932 0.446852 -0.888760
0.088038 0.906293 -0.013193 0.999512 0.005615 -0.030305
-0.220693 0.524199 -0.067910 0.039399 -0.522294 -0.851833
-0.203359 -0.975523 0.227998 0.847041 -0.472274 0.243782
-0.266022 -0.959267 0.237368 -0.846980 0.516892 0.124119
-0.257398 -0.958186 0.206166 0.058229 0.962157 0.266091
0.075829 0.878817 0.082244 0.909238 -0.011902 0.416059
-0.436469 0.394014 0.068728 -0.172430 0.589343 0.789239
-0.623568 0.170187 0.139109 0.381664 0.157109 0.910825
0.203353 -0.982019 -0.028480 -0.834864 -0.533616 -0.134892
0.289008 -0.990180 0.075188 0.434492 -0.883419 -0.175298
0.278357 -0.964051 0.233541 -0.687796 0.368358 0.625477
-0.722816 0.160145 0.102069 -0.113010 -0.456526 -0.882473
0.289035 -0.957345 0.217943 0.468764 0.875301 0.118625
-0.712796 0.201315 0.113123 -0.987274 -0.157994 -0.016297
-0.247943 -0.954998 0.229213 0.434034 0.855159 0.283334
0.393290 0.350698 -0.033258 -0.134739 -0.259316 -0.956328
0.744036 0.149634 0.131443 0.290201 -0.749626 -0.594806
0.770613 0.117091 0.152046 0.034028 0.402997 0.914548
-0.075074 0.859199 -0.018392 -0.941923 -0.258034 -0.214820
-0.256377 -0.976928 0.276736 0.546251 -0.026460 0.837184
-0.065781 -0.298697 0.053598 0.925138 -0.238136 0.295541
-0.046067 -0.213461 -0.008511 0.923368 -0.184729 -0.336528
0.293038 -0.972656 0.268478 -0.236885 0.302774 0.923124
0.302980 -0.971789 0.258415 0.849086 0.446791 0.281747
0.297703 -0.990484 0.261159 0.135685 -0.915342 0.379070
-0.730284 0.151497 0.133353 -0.056551 0.352153 0.934202
-0.298437 -0.981944 0.203765 -0.580859 -0.812555 -0.048006
-0.294913 -0.979205 0.245321 0.238411 -0.231452 0.943144
0.219765 -0.955563 0.222665 -0.624744 0.725272 0.289193
0.748706 0.240115 0.128339 0.000916 0.933500 0.358501
-0.325037 0.452689 0.083304 -0.005860 -0.025391 0.999634
0.253011 0.664241 0.005238 0.608661 0.786584 0.103793
0.213639 -0.978058 0.230630 -0.823176 -0.502609 0.264046
-0.304335 -0.960980 0.204609 -0.760277 0.570818 0.309946
-0.303551 -0.976374 0.185306 -0.202979 -0.596881 0.776208
-0.152139 -0.415264 -0.039739 0.238136 -0.002625 -0.971221
0.632587 0.179444 0.080103 -0.132969 -0.609119 -0.781823
0.244450 -0.976102 0.227295 0.871120 -0.353862 0.340434
-0.757626 0.072041 0.182771 -0.384381 -0.114566 0.916013
0.270965 -0.864847 0.038469 0.863369 0.208686 0.459334
0.263412 -0.980739 -0.052884 0.656514 -0.387371 -0.647206
0.227285 -0.989112 -0.062220 -0.243751 -0.594531 -0.766198
-0.063774 0.320629 -0.078480 -0.246834 -0.169866 -0.954039
-0.014278 0.884579 0.105551 -0.371380 -0.112980 0.921567
-0.270505 -0.988396 0.266814 -0.446242 -0.886410 0.122929
-0.016077 0.751085 0.105418 -0.443983 -0.846889 0.292581
-0.057301 0.779012 0.059982 -0.799951 -0.590747 0.105075
0.319287 -0.988234 0.199988 -0.408338 -0.873867 0.263710
-0.358573 0.467413 0.063614 -0.613178 0.401929 0.680013
0.015463 0.814465 0.125555 0.229255 -0.282388 0.931486
0.033195 0.806095 0.116914 0.344646 -0.142186 0.927885
0.696263 0.113348 0.138804 0.970824 -0.066317 -0.230323
-0.074542 0.833680 0.023598 -0.966216 -0.257485 -0.007965
-0.400560 0.431982 0.026672 -0.700613 0.679830 0.216712
0.216023 0.672697 -0.040788 0.447462 0.814539 -0.369091
0.104760 -0.327927 0.092574 -0.674001 -0.276742 0.684896
0.004782 0.760124 0.129283 -0.006897 -0.402234 0.915494
-0.036667 0.585644 0.122224 0.037416 0.371685 0.927580
-0.153749 0.617484 0.079430 -0.207526 0.467269 0.859401
0.267943 -0.825794 -0.013209 0.895016 0.006836 -0.445936
-0.283260 0.558186 0.034781 -0.572649 0.406812 0.711692
-0.308968 -0.973140 0.238523 -0.749168 0.151830 0.644704
-0.000626 0.830416 0.130416 -0.410627 -0.351573 0.841273
-0.000390 0.842824 0.133538 -0.712333 -0.467940 0.523026
-0.269347 -0.956103 0.217932 0.275948 0.856685 0.435774
-0.800303 0.082108 0.156366 -0.887326 -0.415632 -0.199683
-0.233141 -0.958269 0.212064 -0.233192 0.880612 0.412458
0.004789 0.252569 0.119241 -0.186865 -0.403150 0.895840
-0.146192 0.583590 -0.097821 -0.255135 -0.001343 -0.966887
0.075321 0.651378 -0.110669 0.105533 0.308512 -0.945341
0.061639 0.771661 -0.032126 0.818171 0.114414 -0.563463
0.090939 0.874155 0.011366 0.992828 -0.082400 0.086581
0.071304 0.203267 -0.072929 0.073855 0.277108 -0.957976
0.026312 0.785228 0.116937 0.364025 -0.071718 0.928617
0.091001 0.733111 -0.039194 0.605823 0.768975 -0.203925
-0.044878 0.576669 -0.127282 -0.005524 0.065950 -0.997803
-0.775189 0.214544 0.144612 -0.619922 -0.693869 0.366283
0.174323 0.175632 -0.029822 0.851955 0.203619 -0.482376
-0.782617 0.094117 0.142315 -0.473067 -0.218024 -0.853603
-0.096257 -0.404452 0.044264 0.895901 -0.315073 0.313120
0.032148 0.491090 -0.117468 -0.160283 -0.096377 -0.982330
-0.111574 -0.227607 -0.071378 0.302042 -0.164769 -0.938932
-0.271619 -0.973902 0.272915 -0.685903 0.365368 0.629261
0.264546 -0.976707 0.275341 -0.657002 -0.108158 0.746055
0.281321 -0.973708 0.272360 0.563585 0.490951 0.664296
0.728623 0.072588 0.177543 0.785668 0.046571 0.616871
0.005522 0.337837 0.130796 0.001343 -0.046297 0.998901
-0.280032 -0.989267 0.253234 0.209418 -0.958098 0.195379
-0.006449 0.786678 0.120267 -0.204077 0.007904 0.978912
-0.753574 0.101082 0.149899 0.620685 -0.581133 0.526292
0.087415 0.832142 0.019332 0.948851 -0.263985 -0.173132
0.085715 0.848215 0.008122 0.974090 -0.195349 -0.113681
0.246685 -0.988889 0.263512 0.334910 -0.933256 0.129673
-0.759542 0.097934 0.137910 0.259926 -0.742882 -0.616840
-0.006930 0.803396 0.124027 -0.218177 -0.180181 0.959105
0.005880 0.834670 0.145476 -0.117557 -0.681936 0.721885
3 0 1 2
3 3 4 5
3 6 7 8
3 9 10 11
3 12 13 14
3 15 16 17
3 18 11 19
3 20 21 22
3 23 24 25
3 26 27 28
3 29 30 31
3 32 33 34
3 35 36 37
3 38 39 40
3 41 42 43
3 44 45 46
3 47 48 49
3 50 51 52
3 53 54 55
3 56 57 58
3 59 60 61
3 62 63 64
3 52 65 66
3 67 68 69
3 70 71 72
3 1 0 73
3 74 75 76
3 77 78 79
3 80 81 82
3 83 84 85
3 61 86 87
3 31 88 44
3 89 0 90
3 91 92 93
3 94 95 96
3 97 98 99
3 22 100 20
3 101 42 102
3 103 104 105
3 106 23 107
3 25 108 86
3 6 109 110
3 111 112 113
3 114 115 116
3 117 118 119
3 120 121 122
3 123 124 125
3 126 127 128
3 129 130 131
3 132 133 117
3 134 135 136
3 137 138 139
3 109 140 110
3 141 142 143
3 7 144 141
3 127 145 146
3 147 148 149
3 139 150 151
3 3 152 153
3 66 103 74
3 154 155 156
3 157 158 77
3 159 160 61
3 161 162 163
3 164 29 165
3 166 167 168
3 169 34 170
3 1 73 171
3 61 60 86
3 172 173 4
3 56 58 110
3 174 175 176
3 177 178 179
3 46 70 44
3 180 181 182
3 183 184 119
3 185 186 27
3 187 188 189
3 168 190 166
3 191 192 193
3 194 195 196
3 197 198 199
3 131 148 200
3 192 201 202
3 203 195 204
3 112 172 205
3 206 24 120
3 207 83 85
3 208 209 210
3 211 212 213
3 214 215 169
3 216 217 17
3 218 219 122
3 220 221 222
3 223 48 224
3 18 19 225
3 226 79 118
3 227 228 187
3 72 208 70
3 174 201 229
3 111 223 224
3 115 162 116
3 30 230 88
3 231 232 233
3 234 228 227
3 235 36 14
3 106 76 75
3 53 55 236
3 237 38 40
3 90 171 136
3 111 185 112
3 238 239 155
3 156 3 179
3 195 203 196
3 116 162 161
3 240 241 242
3 243 244 194
3 245 199 78
3 239 3 156
3 47 246 48
3 81 247 248
3 117 184 249
3 250 251 252
3 253 80 238
3 122 219 206
3 254 255 51
3 256 257 123
3 71 14 258
3 259 260 209
3 261 262 135
3 263 134 264
3 265 266 211
3 219 218 267
3 72 268 208
3 102 269 270
3 271 191 272
3 273 266 166
3 274 275 118
3 276 277 220
3 219 278 206
3 279 280 281
3 177 179 282
3 18 283 11
3 284 236 62
3 285 22 21
3 65 286 66
3 263 287 288
3 134 289 264
3 290 291 292
3 293 294 295
3 296 297 246
3 92 147 298
3 102 270 299
3 105 300 301
3 50 302 76
3 26 143 303
3 304 135 288
3 45 44 88
3 154 305 306
3 307 308 309
3 310 271 311
3 312 313 314
3 292 315 290
3 316 80 300
3 212 317 318
3 13 258 14
3 43 42 16
3 319 301 320
3 321 322 164
3 268 323 146
3 166 237 273
3 272 311 271
3 262 324 325
3 326 246 297
3 327 328 329
3 330 331 171
3 332 333 334
3 335 229 201
3 204 68 67
3 336 337 175
3 128 338 339
3 244 243 266
3 256 125 166
3 78 181 340
3 341 342 9
3 336 175 114
3 23 25 107
3 343 254 137
3 5 282 179
3 275 344 226
3 345 346 347
3 348 349 186
3 95 94 350
3 73 351 134
3 120 24 352
3 255 65 51
3 54 353 354
3 218 211 267
3 208 210 70
3 139 96 95
3 14 45 235
3 196 355 243
3 54 251 356
3 357 358 240
3 278 359 206
3 360 296 47
3 33 361 362
3 336 363 364
3 365 176 57
3 210 366 31
3 333 332 367
3 368 369 370
3 175 174 229
3 371 372 373
3 269 144 207
3 143 26 28
3 71 46 14
3 253 81 80
3 263 374 375
3 24 359 108
3 376 312 377
3 257 166 190
3 267 329 378
3 171 90 330
3 379 307 140
3 30 164 230
3 380 277 213
3 294 63 295
3 324 381 325
3 180 345 197
3 382 328 203
3 319 320 56
3 353 53 284
3 282 173 383
3 384 232 231
3 355 196 327
3 97 59 385
3 386 282 93
3 387 388 389
3 297 296 278
3 174 176 365
3 107 99 76
3 101 17 16
3 186 28 27
3 13 314 258
3 180 197 390
3 247 306 248
3 293 295 391
3 392 324 393
3 376 377 35
3 394 395 322
3 208 396 209
3 375 242 397
3 302 52 66
3 250 311 251
3 33 32 215
3 398 391 284
3 399 400 18
3 126 373 401
3 160 159 372
3 202 201 174
3 402 241 261
3 104 300 105
3 90 136 403
3 30 29 164
3 213 265 211
3 129 404 405
3 222 276 220
3 182 406 180
3 362 361 407
3 237 166 382
3 8 141 280
3 406 408 198
3 358 357 409
3 374 240 242
3 19 410 225
3 324 392 381
3 411 326 297
3 203 67 412
3 57 56 320
3 206 359 24
3 273 413 266
3 88 414 235
3 189 234 227
3 225 410 415
3 416 364 417
3 279 308 379
3 45 88 235
3 418 419 406
3 95 164 322
3 360 278 296
3 156 179 154
3 38 237 412
3 420 419 418
3 15 91 93
3 63 294 64
3 99 107 60
3 185 111 348
3 272 163 55
3 357 407 214
3 95 230 164
3 191 193 163
3 89 409 421
3 102 41 26
3 422 11 423
3 131 130 424
3 44 70 210
3 425 211 243
3 35 12 14
3 382 203 412
3 193 161 163
3 328 196 203
3 129 405 132
3 192 335 201
3 59 97 99
3 163 162 236
3 285 351 22
3 289 134 351
3 141 144 142
3 366 210 209
3 304 287 426
3 47 427 360
3 178 417 305
3 326 352 246
3 79 226 157
3 303 142 144
3 384 424 428
3 422 429 430
3 70 46 71
3 425 234 188
3 431 193 192
3 405 157 133
3 432 221 380
3 433 428 390
3 410 400 399
3 100 388 434
3 424 384 231
3 139 151 137
3 427 108 360
3 435 298 149
3 114 310 115
3 68 204 195
3 158 435 77
3 291 290 421
3 192 202 431
3 147 149 298
3 298 435 299
3 200 436 437
3 438 80 316
3 316 300 104
3 357 264 407
3 251 272 356
3 264 357 240
3 146 323 127
3 421 409 34
3 194 68 195
3 377 312 439
3 157 77 79
3 440 225 415
3 439 314 13
3 441 376 442
3 36 35 14
3 298 270 84
3 130 180 390
3 106 75 349
3 389 388 89
3 443 274 118
3 413 412 266
3 48 348 224
3 254 138 137
3 206 120 122
3 323 314 127
3 242 150 397
3 275 274 344
3 253 238 155
3 426 444 304
3 329 267 211
3 12 377 439
3 357 170 409
3 193 431 364
3 301 319 105
3 378 328 278
3 421 34 33
3 307 105 140
3 344 443 133
3 287 304 288
3 445 446 373
3 265 277 447
3 442 448 98
3 442 98 385
3 182 419 420
3 22 351 89
3 367 354 430
3 52 302 50
3 449 402 304
3 242 241 449
3 450 47 49
3 451 144 7
3 452 376 441
3 453 454 51
3 303 269 26
3 297 278 328
3 158 455 435
3 456 426 255
3 20 434 21
3 217 147 91
3 348 48 246
3 422 423 457
3 270 85 84
3 450 427 47
3 312 458 459
3 229 335 114
3 332 354 367
3 124 168 167
3 412 244 266
3 337 58 57
3 139 322 395
3 342 18 460
3 285 387 351
3 461 315 292
3 15 383 16
3 19 462 410
3 379 463 307
3 38 412 413
3 462 63 62
3 272 191 163
3 65 52 51
3 61 160 59
3 115 400 462
3 18 225 399
3 80 82 300
3 436 157 405
3 297 328 411
3 281 28 186
3 199 390 197
3 170 357 214
3 368 397 464
3 179 305 154
3 460 9 342
3 438 239 238
3 139 138 96
3 465 321 466
3 9 460 10
3 213 277 265
3 268 401 467
3 118 79 119
3 407 361 214
3 262 261 324
3 68 194 69
3 442 35 448
3 111 224 348
3 15 93 282
3 391 63 462
3 180 346 345
3 181 117 249
3 462 19 391
3 100 22 89
3 468 112 205
3 447 222 221
3 205 172 4
3 157 217 158
3 446 469 373
3 229 114 175
3 399 225 440
3 24 108 25
3 87 470 61
3 470 465 466
3 349 281 186
3 264 374 263
3 402 135 304
3 282 5 173
3 5 179 3
3 187 355 327
3 202 365 81
3 363 336 116
3 453 99 94
3 324 261 358
3 394 152 471
3 111 113 223
3 323 258 314
3 381 392 472
3 391 353 284
3 168 124 123
3 119 184 117
3 150 242 343
3 252 332 334
3 380 212 432
3 410 462 400
3 187 189 227
3 78 408 181
3 65 426 287
3 161 193 363
3 105 307 103
3 27 473 185
3 339 373 128
3 471 152 369
3 474 461 291
3 430 334 333
3 250 115 310
3 370 316 368
3 468 3 153
3 83 207 451
3 425 355 234
3 335 310 114
3 336 364 475
3 199 245 233
3 84 83 93
3 387 285 21
3 368 286 397
3 153 476 113
3 32 169 215
3 418 406 420
3 403 136 135
3 406 198 180
3 1 171 331
3 263 397 286
3 252 251 54
3 138 254 454
3 416 475 364
3 361 33 214
3 218 122 121
3 207 144 451
3 93 83 386
3 374 242 375
3 64 294 293
3 413 39 38
3 424 245 131
3 402 449 241
3 468 153 113
3 300 82 301
3 299 455 101
3 422 430 11
3 288 135 263
3 75 279 281
3 244 67 69
3 265 447 125
3 255 254 456
3 85 270 207
3 43 172 41
3 317 212 211
3 467 396 208
3 464 471 369
3 305 417 477
3 477 431 202
3 1 331 2
3 157 226 133
3 478 440 415
3 100 434 20
3 95 322 139
3 40 39 273
3 441 385 371
3 217 157 200
3 8 7 141
3 408 78 198
3 132 405 133
3 112 473 172
3 226 118 275
3 340 119 79
3 391 19 353
3 240 261 241
3 181 180 117
3 197 345 479
3 303 144 269
3 200 148 217
3 121 318 218
3 480 479 347
3 260 259 159
3 432 447 221
3 409 393 358
3 202 174 365
3 481 277 276
3 2 331 330
3 60 25 86
3 267 278 219
3 102 299 101
3 260 61 466
3 228 234 355
3 482 74 309
3 253 154 306
3 379 280 279
3 321 465 322
3 62 398 284
3 327 196 328
3 218 318 317
3 413 273 39
3 283 18 483
3 474 315 461
3 28 141 143
3 476 152 394
3 349 23 106
3 193 364 363
3 376 35 442
3 278 267 378
3 132 117 180
3 159 61 260
3 406 419 408
3 253 247 81
3 71 323 72
3 83 451 386
3 187 228 355
3 467 208 268
3 213 212 380
3 57 320 365
3 183 181 249
3 417 364 477
3 483 18 342
3 140 109 8
3 313 128 314
3 115 62 236
3 453 138 454
3 289 362 264
3 477 364 431
3 289 351 387
3 177 7 6
3 341 283 483
3 465 476 394
3 476 465 49
3 60 59 99
3 397 263 375
3 190 123 257
3 152 239 438
3 88 230 414
3 455 216 101
3 428 424 130
3 411 318 326
3 270 269 207
3 254 51 454
3 147 92 91
3 78 77 245
3 425 329 211
3 305 179 178
3 139 395 150
3 26 41 473
3 281 280 28
3 183 119 340
3 148 147 217
3 349 24 23
3 452 484 376
3 92 84 93
3 308 482 309
3 429 460 250
3 340 181 183
3 443 118 133
3 67 203 204
3 149 148 131
3 89 90 403
3 132 180 130
3 123 190 168
3 116 336 114
3 98 94 99
3 367 430 333
3 370 438 316
3 200 157 436
3 432 125 447
3 76 106 107
3 125 256 123
3 156 155 239
3 74 103 309
3 15 17 91
3 355 425 243
3 192 191 335
3 125 124 265
3 78 340 79
3 103 307 309
3 335 271 310
3 277 481 447
3 178 110 58
3 290 389 421
3 420 406 182
3 433 199 233
3 198 346 180
3 290 315 485
3 328 378 329
3 486 487 401
3 101 216 17
3 77 435 245
3 272 55 356
3 84 92 298
3 209 260 366
3 377 12 35
3 21 388 387
3 264 362 407
3 349 75 281
3 478 399 440
3 160 372 371
3 432 328 382
3 388 100 89
3 432 411 328
3 433 232 488
3 54 53 353
3 479 480 346
3 126 401 145
3 487 467 401
3 178 6 110
3 138 453 94
3 236 55 163
3 128 373 126
3 188 187 327
3 197 346 198
3 66 74 302
3 469 371 373
3 414 230 350
3 110 105 319
3 349 352 24
3 457 10 429
3 160 385 59
3 220 380 221
3 135 402 261
3 260 29 366
3 372 159 486
3 382 125 432
3 8 280 379
3 0 2 330
3 439 13 12
3 382 412 237
3 318 120 326
3 232 384 488
3 217 216 455
3 359 278 360
3 152 438 369
3 443 344 274
3 11 353 19
3 433 390 199
3 430 429 334
3 450 49 470
3 437 436 405
3 368 464 369
3 289 387 389
3 470 466 61
3 393 472 392
3 76 453 50
3 240 374 264
3 41 172 473
3 64 293 391
3 105 110 140
3 273 237 40
3 244 412 67
3 127 314 128
3 240 358 261
3 165 260 466
3 451 7 386
3 295 63 391
3 41 102 42
3 339 458 445
3 172 43 173
3 217 455 158
3 425 188 327
3 140 8 379
3 115 250 400
3 88 31 30
3 33 215 214
3 468 205 3
3 354 353 11
3 233 232 433
3 120 352 326
3 393 324 358
3 73 0 89
3 268 72 323
3 383 173 43
3 113 476 223
3 189 188 234
3 354 332 252
3 350 94 98
3 178 177 6
3 404 131 200
3 489 315 474
3 184 183 249
3 400 250 460
3 127 126 145
3 3 239 152
3 211 218 317
3 437 404 200
3 47 296 246
3 230 95 350
3 233 245 424
3 385 441 442
3 321 165 466
3 405 404 437
3 289 389 485
3 11 283 9
3 81 365 82
3 226 344 133
3 460 429 10
3 112 468 113
3 342 341 483
3 65 287 286
3 153 152 476
3 441 371 452
3 263 286 287
3 478 410 399
3 307 463 308
3 455 299 435
3 35 37 448
3 477 202 248
3 299 270 298
3 337 336 475
3 28 280 141
3 464 395 471
3 242 449 343
3 104 66 286
3 143 142 303
3 34 169 32
3 15 282 383
3 252 54 354
3 290 485 389
3 373 372 401
3 53 236 284
3 21 434 388
3 76 99 453
3 130 390 428
3 480 347 346
3 7 177 386
3 71 258 323
3 316 104 368
3 26 269 102
3 202 81 248
3 484 452 469
3 489 362 289
3 233 424 231
3 444 426 456
3 354 11 430
3 289 485 489
3 124 167 265
3 457 429 422
3 210 31 44
3 42 101 16
3 75 482 279
3 334 250 252
3 488 428 433
3 214 169 170
3 162 115 236
3 138 94 96
3 89 325 409
3 146 145 401
3 432 212 318
3 457 423 10
3 4 3 205
3 29 31 366
3 14 46 45
3 477 306 305
3 222 447 481
3 18 400 460
3 130 129 132
3 244 69 194
3 408 182 181
3 134 263 135
3 198 78 199
3 266 265 167
3 76 302 74
3 346 197 479
3 277 380 220
3 120 318 121
3 449 304 444
3 360 108 359
3 56 110 319
3 55 54 356
3 178 416 417
3 371 469 452
3 103 66 104
3 291 461 292
3 109 6 8
3 312 314 439
3 490 484 469
3 48 223 49
3 318 411 432
3 245 149 131
3 222 481 276
3 129 131 404
3 250 310 311
3 394 471 395
3 160 371 385
3 362 421 33
3 474 291 362
3 36 235 414
3 25 60 107
3 421 389 89
3 482 308 279
3 409 325 393
3 337 475 58
3 154 253 155
3 322 465 394
3 416 58 475
3 337 176 175
3 51 50 453
3 254 343 456
3 29 260 165
3 351 73 89
3 325 472 393
3 170 34 409
3 419 182 408
3 427 450 86
3 445 373 339
3 253 306 247
3 125 382 166
3 401 268 146
3 472 325 381
3 211 266 243
3 176 337 57
3 259 209 396
3 64 391 398
3 350 98 414
3 135 262 403
3 348 186 185
3 334 429 250
3 450 87 86
3 49 223 476
3 477 248 306
3 427 86 108
3 196 243 194
3 118 117 133
3 426 65 255
3 458 339 491
3 167 166 266
3 283 341 9
3 4 173 5
3 256 166 257
3 482 75 74
3 245 435 149
3 291 421 362
3 97 385 98
3 217 91 17
3 151 150 343
3 11 10 423
3 49 465 470
3 150 395 464
3 89 262 325
3 473 112 185
3 448 414 98
3 473 27 26
3 478 415 410
3 428 488 384
3 321 164 165
3 315 489 485
3 90 0 330
3 246 352 348
3 370 369 438
3 115 462 62
3 489 474 362
3 329 425 327
3 116 161 363
3 191 271 335
3 397 150 464
3 386 177 282
3 286 368 104
3 272 251 311
3 262 89 403
3 444 343 449
3 372 486 401
3 438 238 80
3 137 151 343
3 470 87 450
3 345 347 479
3 16 383 43
3 398 62 64
3 444 456 343
3 136 171 73
3 348 352 349
3 134 136 73
3 320 82 365
3 82 320 301
3 58 416 178
3 308 463 379
3 458 491 459
3 339 338 491
3 313 459 491
3 312 459 313
3 490 469 446
3 445 490 446
3 376 484 490
3 376 490 312
3 458 312 490
3 458 490 445
3 414 448 37
3 414 37 36
3 486 159 487
3 259 487 159
3 259 467 487
3 259 396 467
3 338 128 313
3 338 313 491
