ply
format ascii 1.0
comment Created by Blender 2.61 (sub 0) - www.blender.org, source file: 'man.blend'
element vertex 492
property float x
property float y
property float z
property float nx
property float ny
property float nz
element face 980
property list uchar uint vertex_indices
end_header
-12.036999 1.508046 2.320541 -0.793817 0.085116 -0.602161
-11.886211 1.322072 2.382864 0.222877 -0.758751 -0.612049
-12.377670 1.039563 2.777606 -0.901547 -0.432417 -0.013764
-0.006956 1.907189 -1.882679 0.202612 0.199835 -0.958617
1.425762 0.148560 -2.289609 0.208075 -0.261666 -0.942442
0.283478 -0.227815 -1.728931 -0.630299 -0.427839 -0.647755
0.005188 -0.550397 1.309523 -0.024964 -0.798578 0.601337
0.561016 -0.720677 1.042975 -0.568346 -0.555284 0.607105
0.682440 0.412434 2.067118 0.266518 -0.383282 0.884335
-4.960260 -16.609367 3.670404 -0.814264 0.574480 0.082949
-4.965883 -16.614441 3.258686 -0.304392 -0.130314 0.943571
-4.969801 -16.992266 3.286664 -0.081118 -0.981384 0.173956
-0.968223 15.043660 1.493003 -0.559832 -0.165502 0.811884
-0.813560 15.226254 1.707327 -0.381451 -0.470565 0.795618
-1.068142 15.400819 1.583616 -0.777551 0.069308 0.624958
2.174774 -8.079988 -0.380015 -0.882870 -0.061495 -0.465529
2.852091 -7.240054 -0.848931 -0.114994 0.024506 -0.993042
2.787258 -10.285209 -1.736129 -0.493667 0.028108 -0.869167
-4.623893 -16.828903 3.672176 0.010956 -0.799463 0.600574
-4.208786 -17.009089 3.619170 0.193121 -0.868496 0.456435
-13.044862 0.975053 2.765970 -0.199377 -0.979492 0.028687
-13.128889 1.188977 2.620914 -0.891598 0.019074 -0.452376
-12.503728 1.343699 2.380366 0.355419 -0.834712 -0.420606
2.427263 8.400796 1.861339 0.471267 -0.262581 0.841975
3.511010 9.192216 1.027431 0.503708 -0.302774 0.809046
3.211200 10.160661 1.212339 0.350444 0.288125 0.891140
3.978096 -1.445795 0.605113 0.975066 0.115757 0.189154
3.098911 2.777333 0.053747 0.981445 0.191198 0.012513
2.832626 2.547936 1.082610 0.792993 0.140294 0.592792
0.314270 14.485869 -1.754922 0.197485 -0.397504 -0.896084
-0.744399 14.933103 -1.729040 -0.489486 -0.241005 -0.838008
-0.371563 15.787045 -1.944731 -0.244575 0.255440 -0.935362
-13.929725 1.893550 2.508140 -0.174017 -0.410382 0.895138
-13.798389 1.840438 2.320451 0.276437 -0.960997 -0.004822
-13.352022 2.389344 2.237545 -0.075076 0.492630 0.866970
-1.195557 14.864806 1.274427 -0.890744 -0.054353 0.451186
-1.510666 15.140763 -0.082199 -0.995117 -0.026795 0.094699
-1.442090 14.739953 0.028165 -0.988556 -0.143406 0.046358
13.826194 1.436822 2.510231 0.979369 0.130467 -0.154149
13.638453 1.293103 2.805727 0.155766 -0.365093 0.917814
13.679471 1.227031 2.557588 0.272713 -0.938994 -0.209418
3.801862 -2.005461 -0.228526 0.906888 0.069704 -0.415540
3.799497 -6.761553 -0.547099 0.723167 0.116886 -0.680685
3.132156 -2.862949 -1.246056 0.528459 -0.002747 -0.848933
-0.490633 17.012234 -1.028413 -0.323038 0.839290 -0.437269
-1.393682 16.336227 -0.277909 -0.877987 0.476730 -0.043092
-0.802662 16.803955 0.938738 -0.541490 0.752708 0.374371
4.444592 10.061807 -1.433783 0.494186 0.311624 -0.811548
3.085951 9.392488 -1.689044 0.271798 -0.157048 -0.949431
3.367226 10.889071 -1.518843 0.314615 0.409284 -0.856410
-1.296574 8.901368 2.306690 -0.097171 0.088565 0.991302
-3.328827 9.717446 1.250651 -0.443709 0.061983 0.894009
-2.393579 8.378106 1.859106 -0.484390 -0.290078 0.825343
-3.660016 -16.493732 1.459508 0.731254 -0.674734 -0.099857
-4.639620 -17.100649 0.705764 -0.153081 -0.987884 -0.024598
-3.372024 -16.956093 -0.804049 0.783013 -0.538682 -0.310892
-2.141607 -1.729391 2.050387 0.028413 0.018281 0.999420
-3.029042 -5.855464 1.740432 -0.377422 -0.049165 0.924711
-2.025154 -5.486380 1.757619 0.456282 -0.180761 0.871242
0.364787 11.679830 1.011004 0.377758 0.305460 0.874050
0.475858 11.010949 1.415016 0.024201 0.492630 0.869869
1.050771 11.926410 0.466084 0.528275 0.512345 0.677023
-3.713948 -16.467775 3.686255 0.461135 0.861476 0.212470
-4.000088 -16.510464 4.062689 -0.373669 0.923338 0.088290
-3.635895 -16.803011 4.592756 0.792688 -0.061190 0.606525
-3.618004 9.123879 0.804177 -0.184149 -0.602222 0.776757
-2.600613 7.806281 1.265434 -0.739982 -0.286081 0.608722
13.853632 1.821105 2.356936 -0.043916 -0.969237 0.242103
14.054891 1.908368 2.264582 0.795770 -0.557207 -0.237159
13.859832 2.006816 2.504987 0.027253 -0.045961 0.998566
0.526349 17.137043 0.368425 0.313944 0.937407 0.150639
-0.371151 16.501812 1.540636 -0.209174 0.623463 0.753319
0.830686 16.502846 1.352121 0.535264 0.603717 0.590747
-11.467519 2.079833 1.889313 0.107944 -0.733390 -0.671163
-0.866190 6.379903 2.221901 -0.247261 -0.023957 0.968627
0.811214 6.235044 2.215674 0.230628 -0.024995 0.972716
-0.032197 9.251424 1.926235 -0.009369 0.171148 0.985168
4.646333 -15.633357 0.786607 0.907132 0.370708 0.199103
4.883012 -16.538824 3.052625 0.141087 0.956603 0.254921
5.214863 -16.465235 2.538800 0.414197 0.891537 0.183111
-2.737540 3.410050 -0.762338 -0.787011 0.217414 -0.577319
-3.444163 -1.492314 -0.782784 -0.825434 0.051729 -0.562090
-3.773318 -0.231265 0.255081 -0.988983 0.146825 0.018006
1.858558 -7.061700 0.757343 -0.799860 -0.320627 0.507309
2.998873 -9.080359 0.948804 -0.383618 -0.163030 0.908963
2.786837 -7.694312 1.454218 -0.309671 -0.261971 0.914029
2.753513 11.629521 0.287264 0.230811 0.870022 0.435591
2.330953 11.732072 -0.160268 0.298593 0.925199 0.234077
-1.422707 15.494069 -1.121975 -0.855068 0.073000 -0.513321
-11.785742 1.720582 2.494288 -0.066683 0.311289 0.947935
-11.781633 2.098748 2.325100 -0.211859 0.186316 0.959349
2.337758 -10.711514 -0.684941 -0.968749 -0.186743 -0.163091
2.612441 -11.011807 0.480678 -0.787011 -0.185522 0.588336
2.142571 -8.483850 0.141402 -0.952574 -0.207343 0.222633
-0.609725 11.315553 1.246760 -0.143925 0.500290 0.853786
-1.141770 12.681569 -0.536797 -0.818262 0.571642 -0.060030
-2.645020 11.751420 -0.570504 -0.357952 0.872646 0.332163
-0.112643 12.060382 1.089520 -0.246986 0.093142 0.964507
-0.920977 13.230161 0.353773 -0.901395 -0.292276 0.319376
0.015621 10.926290 1.356537 -0.017548 0.394055 0.918882
-12.443001 1.421281 2.555740 0.688650 -0.398694 0.605609
4.366023 -9.557594 -1.373123 0.663167 0.189703 -0.723991
4.035355 -6.853920 0.220228 0.988495 0.083865 0.125767
-1.643195 5.114636 1.617161 -0.587298 -0.006256 0.809320
-2.654360 4.820699 0.544603 -0.954650 0.040407 0.294870
-2.546929 2.526952 1.450711 -0.646046 0.060488 0.760888
0.854360 7.931134 2.157767 0.054872 -0.060762 0.996612
0.980604 9.074689 2.302073 -0.001953 0.135929 0.990692
4.147722 10.754855 0.721261 0.473128 0.451674 0.756371
-0.034281 0.022143 1.843184 -0.142521 -0.539048 0.830103
-0.936716 0.169514 1.519346 -0.028748 -0.247017 0.968566
2.370695 6.784974 -1.519106 0.542192 -0.263009 -0.797998
2.134119 4.811816 -0.752130 0.633931 -0.029511 -0.772790
0.982921 5.427455 -1.526754 0.296579 -0.185095 -0.936888
-4.119518 -13.667560 0.759791 -0.445845 0.072970 0.892117
-3.745481 -15.340831 1.157172 0.442946 0.510361 0.737053
-3.552151 -13.918508 0.679147 0.675222 0.022950 0.737236
5.191732 -16.971262 3.301797 0.432569 -0.891964 0.131260
5.297977 -16.868069 3.000711 0.473556 0.778497 0.411878
5.351190 -16.673389 3.420434 0.917783 0.372814 0.136479
3.898552 8.854972 0.868060 -0.508591 -0.668844 0.542161
5.045463 7.374242 0.930678 -0.580187 -0.472365 0.663472
6.051154 7.250796 1.160223 0.188238 -0.106601 0.976287
13.009398 0.962361 2.807295 -0.035981 -0.944670 0.325999
12.511449 1.351351 2.612334 -0.716788 -0.567949 0.404462
12.009950 1.869653 1.964057 -0.067507 -0.782189 -0.619343
0.796563 14.915158 1.679396 0.413587 0.344707 0.842647
0.330851 15.078374 1.659296 0.331339 -0.114444 0.936521
0.336361 14.471105 1.865364 0.595782 0.179937 0.782708
3.931723 -16.682037 1.314549 -0.578173 -0.814020 -0.055177
3.406245 -16.956066 3.286757 -0.853023 -0.508225 0.118351
3.495402 -16.037323 0.690241 -0.981628 -0.116947 0.150548
4.348922 -17.013149 2.033773 -0.197974 -0.977172 -0.076998
5.551699 -16.990942 2.876721 0.630329 -0.765831 -0.127110
-10.741315 2.920993 1.273107 0.277596 -0.702658 -0.655110
-10.382058 2.989125 1.822597 0.775048 -0.327433 0.540422
-10.888669 2.133935 2.050827 0.687216 -0.722892 0.071383
-4.932515 10.614509 -0.183426 -0.759728 0.635792 0.136204
-3.123483 11.595031 0.226922 -0.269265 0.878445 0.394696
-3.641486 11.354403 -0.981678 -0.467238 0.763024 -0.446577
-0.821750 1.196200 2.039703 -0.302408 -0.209174 0.929929
1.305410 0.715648 1.728023 0.282144 -0.145848 0.948210
2.195800 -1.031171 1.998253 0.054628 0.051881 0.997131
2.663463 1.061608 1.587141 0.403119 0.217872 0.888791
2.156241 -4.312188 1.993908 -0.169439 -0.081545 0.982147
0.940815 15.037221 1.504118 0.581713 -0.078158 0.809595
0.751887 15.246957 1.754115 0.305643 -0.472610 0.826533
3.416749 -14.001389 0.427823 -0.903745 -0.009857 0.427931
3.221433 -15.160602 0.055372 -0.996063 -0.086856 -0.016358
3.673101 -14.965917 0.966205 -0.477737 0.297311 0.826624
-4.313068 9.928926 -1.486075 -0.380779 0.159490 -0.910794
-4.874192 10.334289 -0.858956 -0.673086 0.494095 -0.550249
-0.010359 4.414020 -1.368393 -0.073672 -0.015778 -0.997131
0.410745 4.138404 -1.442580 -0.013977 0.030122 -0.999420
-0.413260 -0.185073 -1.974851 0.474136 -0.449965 -0.756767
-0.617490 1.395482 -2.364502 0.141057 0.078829 -0.986847
-0.128388 1.628821 -2.072812 0.698782 0.050813 -0.713492
4.520832 -16.244755 -0.584898 0.872494 0.108860 -0.476272
4.738061 -15.322047 -0.355971 0.932585 0.037873 -0.358867
1.284641 14.278466 -0.122200 0.903623 -0.312510 -0.292825
0.904602 13.223319 0.391354 0.854732 -0.313944 0.413312
-3.364889 -14.128631 -0.103136 0.992828 -0.085116 0.083590
-3.210438 -15.153562 0.057503 0.985565 -0.163976 -0.041688
-3.497565 -15.180066 -0.668482 0.872799 -0.058901 -0.484451
-0.490894 13.506129 -1.028606 -0.331736 -0.243843 -0.911283
0.546581 13.716689 -1.123699 0.295999 -0.402173 -0.866359
12.250335 2.117467 2.057169 0.409711 -0.700888 -0.583850
12.376138 1.759175 2.527044 0.054445 0.498856 0.864956
12.886703 1.322642 2.875168 -0.111942 0.278695 0.953795
-14.099769 2.049626 2.349942 -0.923978 0.335124 0.184179
-12.822058 2.814546 1.875449 -0.645131 0.689474 -0.329234
-11.605145 1.567000 2.373795 0.796045 -0.564135 0.219153
2.341309 1.495951 -1.686548 0.606494 0.118259 -0.786218
1.630455 -1.030236 -1.514008 -0.139225 -0.309030 -0.940794
-4.005102 -7.049370 0.282662 -0.985168 0.072542 0.155309
-3.495490 -9.033733 1.099221 -0.273537 -0.107028 0.955870
-3.506630 -7.023745 1.296508 -0.714805 -0.078036 0.694937
0.386979 -0.671237 0.363771 -0.620380 -0.783624 -0.032044
-0.499216 -0.811164 0.970179 0.627247 -0.590411 0.507859
0.012306 -0.352168 -0.914141 -0.024323 -0.919614 -0.392041
4.605039 -17.021351 3.586151 0.116825 -0.915952 0.383831
4.996152 -16.835926 3.378052 0.092135 -0.112461 0.989349
5.009298 -16.841084 3.762307 0.807764 -0.586474 -0.059267
5.115947 -16.824629 3.959447 -0.613422 0.399609 0.681143
5.375275 -16.805490 3.991578 0.704672 0.271981 0.655293
2.582042 4.954259 -0.198653 0.948454 -0.026826 -0.315744
2.596871 4.972402 0.675871 0.921598 0.018708 0.387646
12.762949 3.590272 1.821905 0.375835 -0.748650 -0.546098
13.114201 3.781739 1.958759 0.679250 0.187750 -0.709433
13.417145 3.768369 2.243831 0.890774 0.370037 -0.263710
13.219712 1.217620 2.831164 0.884396 0.197699 0.422742
-3.871783 -14.236685 -1.015211 -0.255715 -0.125217 -0.958586
-3.790368 -10.170993 -1.826536 -0.282205 0.045686 -0.958251
-2.660646 -10.485201 -1.641759 0.637928 -0.079745 -0.765923
14.069126 2.099293 2.310164 0.902432 0.419782 0.096744
13.541619 2.291125 1.940087 0.473342 0.101932 -0.874935
12.260435 3.134917 1.522993 0.628620 0.100772 -0.771111
4.338855 -16.598976 4.029358 -0.755272 0.465438 0.461409
4.521491 -16.532772 3.421610 0.031068 0.995880 0.085055
4.189378 -16.523340 3.434117 0.263253 0.873348 0.409772
3.692168 -15.563037 -0.957924 -0.449843 -0.008484 -0.893063
-4.564635 -9.699116 -1.083197 -0.855495 0.149693 -0.495651
-3.750958 -6.839828 -0.619495 -0.697195 0.137791 -0.703482
12.388809 2.639890 1.590694 0.289102 -0.382855 -0.877377
13.332944 2.135079 1.983336 -0.127140 -0.769738 -0.625538
0.991663 1.753560 -2.230004 -0.004242 0.205023 -0.978729
6.006788 8.196460 0.971345 0.477432 0.459212 0.749077
3.069979 -6.938603 1.628682 0.105380 -0.170934 0.979614
1.448583 16.134892 0.009833 0.929777 0.362468 0.063906
1.440022 15.709729 -1.065882 0.903867 0.127079 -0.408490
0.789672 16.728310 -1.237221 0.472335 0.699454 -0.536302
10.787566 3.364102 1.909806 -0.175451 0.309275 0.934629
10.410007 2.935645 1.655725 -0.731773 -0.643880 0.223273
10.786251 2.871322 2.216154 -0.401929 0.223701 0.887906
-13.474855 2.315864 1.909721 -0.497757 0.131321 -0.857295
-14.033731 1.909016 2.252605 -0.656636 -0.570696 -0.493027
3.677398 -11.029752 -1.752570 0.266121 -0.098880 -0.958831
3.668180 -14.307408 -1.068320 -0.306284 -0.155248 -0.939177
6.188295 6.520967 0.865695 -0.241920 -0.254311 0.936338
6.874463 7.103992 0.579848 0.426466 0.554613 0.714499
11.832291 1.319102 2.469169 -0.653462 -0.756920 -0.000336
11.679524 1.727013 2.060088 0.205145 -0.476455 -0.854915
12.298923 1.104598 2.656946 0.577929 -0.452925 -0.678854
1.616907 8.573720 -2.073132 0.185827 -0.015992 -0.982421
3.137553 8.590468 -1.361565 0.695669 -0.238075 -0.677725
-4.337446 -16.782204 3.937009 0.710898 -0.624317 0.323740
5.621702 -16.651649 2.787488 0.812555 0.575701 0.091067
13.423820 3.563939 2.316209 0.685507 -0.685415 0.245399
12.680813 3.664077 2.167206 0.399884 -0.604480 -0.688925
-4.787687 -10.226103 -0.094093 -0.963500 0.065554 0.259529
-0.949520 13.723111 -0.737941 -0.785852 -0.246406 -0.567186
3.970569 -16.691319 4.673168 0.061312 0.790002 0.610004
4.333137 -16.796223 4.490215 0.915830 0.143773 0.374920
3.962977 -16.481762 3.700030 0.379894 0.869472 0.315683
13.209593 3.920087 2.478381 0.161687 0.557573 0.814203
-1.549635 15.591126 -0.617817 -0.992157 0.078372 -0.097324
-3.543395 -16.120827 1.077247 0.991852 0.002747 0.127171
13.226815 1.717719 2.119264 0.294290 -0.226508 -0.928465
-1.387759 3.447024 -1.342212 -0.313639 0.180456 -0.932218
-0.549584 3.792653 -1.470046 -0.055513 0.143773 -0.988037
-11.015364 3.741591 0.976078 -0.406873 0.233131 -0.883206
-8.015028 6.728240 0.357817 -0.619434 0.770898 -0.148167
-6.990572 6.694438 -0.581362 -0.494919 0.286691 -0.820276
12.592648 2.950742 1.948957 0.423780 0.703238 0.570818
13.374104 2.406810 2.221743 0.010102 0.404218 0.914579
3.853971 -15.545644 1.535246 -0.349834 0.794122 0.496933
4.030585 9.120074 -1.450571 0.043275 -0.392773 -0.918607
-2.695179 -0.288560 -1.381219 0.460982 -0.559282 -0.688925
-2.867262 -3.070286 -1.366212 -0.396832 -0.029633 -0.917386
5.164226 -17.056332 3.947099 -0.148625 -0.842402 0.517899
-4.708620 -15.859776 1.196261 -0.740165 0.665792 0.094089
-4.588866 -16.876741 -0.781095 -0.767083 -0.377667 -0.518540
-5.552818 -16.644552 2.364434 -0.967132 0.226112 -0.116123
-1.915989 0.900777 -2.170383 -0.413404 -0.003082 -0.910520
-4.336819 10.587804 0.680201 -0.521622 0.453719 0.722495
-3.828748 9.324906 0.911313 -0.177282 -0.122837 0.976440
12.779902 1.450995 2.323473 0.582232 -0.141636 -0.800562
13.168952 1.063271 2.710288 0.743248 -0.544328 -0.388867
-0.567048 15.468808 1.921603 -0.303049 -0.011994 0.952879
1.438942 14.828021 -0.478565 0.956572 -0.211524 -0.200507
1.044241 14.469642 -1.140434 0.769799 -0.302072 -0.562243
-10.990629 3.987487 1.369371 -0.208136 0.931852 0.297159
-10.943505 3.386851 1.928805 0.301004 0.524094 0.796655
-6.493057 5.185281 0.005965 0.537309 -0.760643 -0.364238
-11.106054 3.061849 1.149241 -0.125828 -0.424451 -0.896634
11.806599 2.077679 2.342654 0.168706 0.246162 0.954405
12.234776 2.282376 2.255627 0.107883 0.279641 0.954009
7.557998 6.656583 1.031653 0.223304 0.612232 0.758446
1.071414 15.381181 1.611713 0.752953 -0.019929 0.657735
3.460629 -6.123584 1.426526 0.699973 -0.015015 0.713981
3.615354 -8.425736 1.020014 0.532762 -0.078249 0.842616
-4.728997 -15.322928 -0.331990 -0.945402 -0.051119 -0.321818
-3.863235 -15.785285 -1.037112 0.001953 0.106235 -0.994324
13.083263 1.550490 2.363141 -0.608509 -0.785394 0.113315
5.412007 -16.870428 3.443891 -0.375622 0.262093 0.888913
5.502018 -16.699368 3.110452 -0.045930 0.963164 0.264931
12.241918 0.943606 2.873549 -0.072970 -0.859920 0.505173
11.850924 1.640309 2.521624 -0.064577 0.362560 0.929685
7.148536 7.321776 -0.052737 0.779687 0.592669 -0.201910
0.609084 4.811606 2.215960 0.150822 0.023743 0.988250
2.268757 2.421527 1.567255 0.562029 -0.086428 0.822565
1.681843 5.057122 1.599945 0.587909 0.002686 0.808893
0.687683 -1.102910 -0.723611 -0.789941 -0.469405 -0.394421
-4.870902 -16.895452 3.775248 -0.452956 -0.858119 -0.241707
-3.387557 -16.926561 3.262584 0.867031 -0.481826 0.126591
-12.502450 1.656148 2.131944 -0.416211 -0.190191 -0.889126
-3.469911 8.778037 -0.674147 -0.252846 -0.951048 -0.177618
-5.431054 6.567077 0.574031 0.679159 -0.543107 0.493667
-6.607205 5.064223 1.002347 0.576678 -0.556993 0.597613
-12.142692 2.301557 1.720483 -0.220893 -0.489700 -0.843410
-13.093231 1.854760 2.470220 0.003540 0.412061 0.911130
-13.244760 1.919802 2.258104 -0.688620 0.713157 -0.131046
-13.701825 1.537362 2.707494 -0.541612 0.435591 0.718925
-4.113509 -17.068981 4.412873 -0.253639 -0.942839 0.216102
-4.063228 -16.718445 4.751148 -0.214393 0.263375 0.940550
-4.308294 -16.758341 4.397990 -0.968902 0.187689 0.161107
6.265578 8.134675 -0.795375 0.616779 0.298807 -0.728172
6.798213 6.482211 -0.683064 0.264138 0.062685 -0.962432
4.068957 -13.465488 0.795689 0.155553 0.018159 0.987640
4.775095 -10.002332 -0.079648 0.975585 0.073061 0.207007
-3.021136 3.100028 0.250525 -0.974273 0.201086 0.101688
-2.843113 2.126683 1.140149 -0.787378 0.141667 0.599933
-0.860406 7.981051 2.149716 -0.037660 -0.063875 0.997223
3.224540 -1.794141 1.648906 0.598285 0.051973 0.799585
-6.324065 6.465087 0.933400 0.111179 0.043123 0.992859
-0.746220 -1.142324 -0.744880 0.778314 -0.469497 -0.416822
-1.723472 -0.889403 -1.538659 0.061708 -0.303629 -0.950774
-0.613541 3.613690 2.254869 -0.161077 0.043062 0.985992
-0.145887 4.338290 2.100733 0.149602 -0.206763 0.966857
-0.585355 5.375175 2.217051 -0.112064 -0.021912 0.993439
-4.559836 -15.306745 0.675077 -0.878780 0.240761 0.412000
-4.540483 -16.077478 -0.397899 -0.923521 0.080508 -0.374981
-0.461856 14.448500 1.879381 -0.562517 0.070009 0.823786
0.020540 14.439418 2.499917 0.023316 -0.010102 0.999664
0.000337 15.213563 1.886668 0.028901 -0.075564 0.996704
-13.578093 1.190749 2.662061 0.068758 -0.890530 0.449629
-2.487099 4.942811 -0.377144 -0.887661 -0.011414 -0.460311
6.533720 5.312709 1.155262 -0.663289 -0.338878 0.667196
6.600083 5.127164 0.032947 -0.560228 -0.770592 -0.303812
-2.148867 1.529849 1.614353 -0.013764 0.213141 0.976897
-3.292492 -1.332360 1.522293 -0.677084 0.100955 0.728935
0.052693 12.815236 -0.948370 0.111270 0.238685 -0.964690
-0.624734 12.671853 -1.108933 -0.223975 0.448073 -0.865474
0.508217 15.489507 1.932699 0.238807 -0.018708 0.970855
-12.937491 4.000129 2.112321 -0.117679 0.992767 -0.023499
-12.363893 3.612859 2.000517 -0.126041 -0.384045 0.914640
5.790245 6.077403 -0.320204 -0.656606 -0.614734 -0.436933
12.435557 3.983048 1.546252 0.402387 0.594043 -0.696554
11.033066 3.711085 0.964824 0.374401 0.145024 -0.915830
11.093206 3.983792 1.477332 0.225379 0.935606 0.271676
-12.191893 1.319369 2.845300 -0.275491 0.580035 0.766564
-12.200322 0.958049 2.903015 0.058626 -0.788995 0.611560
-5.623460 -16.896622 3.301831 -0.876492 0.175085 0.448378
-5.387124 -16.865118 3.431592 0.384838 0.231208 0.893521
-5.368752 -16.624449 2.897332 -0.644948 0.742271 0.181738
-4.629151 -14.200300 -0.135812 -0.989441 0.075350 -0.123753
-2.578470 -8.991749 0.755607 0.703513 -0.227271 0.673330
-2.840732 -7.427264 1.584642 0.139927 -0.247078 0.958831
0.202085 14.322215 2.146227 0.877346 -0.222175 0.425275
0.163681 14.140273 2.045938 0.514817 -0.310343 0.799127
5.125934 -16.570995 3.442109 -0.227729 0.891049 0.392590
-5.190843 -16.888960 4.345199 -0.869472 -0.087832 0.486068
-4.903365 -16.791536 4.428135 0.282937 0.323710 0.902829
-5.654018 9.316998 -0.491956 -0.836451 0.516709 -0.182562
5.610666 -16.943312 3.389993 0.734977 -0.189062 0.651143
4.528921 -16.804224 3.870302 0.081698 -0.938475 0.335521
4.651713 -16.558334 3.960721 0.700247 0.711692 0.055818
4.798152 -17.013638 4.473433 0.615986 -0.735710 0.281472
3.411580 8.632648 -0.919338 0.805017 -0.545122 -0.233955
2.657830 7.900325 1.277040 0.757500 -0.308817 0.575152
-1.045368 12.437665 0.213320 -0.971129 -0.126621 0.202124
-11.813928 2.041358 1.851646 0.097690 -0.815241 -0.570788
3.531864 8.800344 -0.602838 0.167882 -0.984893 -0.041871
-4.393186 -17.023914 1.873324 0.252602 -0.966033 -0.054048
-5.496095 -17.007614 2.843099 -0.535874 -0.839595 -0.088931
12.315704 3.363151 1.871947 0.778100 -0.117313 -0.617084
-3.910598 -17.035166 -1.197674 0.026063 -0.581286 -0.813257
-12.197510 3.116872 1.478676 -0.514634 0.049043 -0.855983
-12.383337 3.971227 1.523299 -0.397015 0.599963 -0.694540
5.091625 9.476180 0.357594 0.588000 0.470260 0.658071
5.616340 9.361487 -0.375810 0.800531 0.598346 -0.033174
-13.375385 2.096799 2.025573 0.045839 -0.752922 -0.656484
-12.419345 2.514676 1.763948 -0.122257 -0.559313 -0.819880
-2.262731 -10.673321 -0.167898 0.974425 -0.182653 0.130833
-2.161654 -8.391770 -0.230568 0.970733 -0.131718 -0.200781
-4.059220 -4.099249 0.631621 -0.979675 0.023347 0.199164
0.671349 15.403653 -1.872841 0.431623 0.019623 -0.901822
-5.498266 -17.118149 3.302377 -0.074343 -0.923185 0.377087
-3.190551 8.750997 -1.366884 -0.491562 -0.423200 -0.761071
-1.338139 8.643781 -2.125270 -0.189795 -0.138188 -0.972045
-1.999784 6.572289 -1.663722 -0.421186 -0.266579 -0.866878
0.531595 12.809123 1.641613 0.532670 -0.756340 0.379681
1.161692 13.381808 0.751920 0.877194 -0.475661 0.065096
0.744711 13.887673 1.760365 0.665181 -0.100986 0.739799
-6.510155 5.889447 -0.765071 0.393780 -0.301218 -0.868435
-6.372215 6.377469 -0.734022 0.109684 -0.205542 -0.972472
-0.719212 13.460622 1.666251 -0.711478 -0.211798 0.670003
-0.779449 14.909966 1.692562 -0.418226 0.334849 0.844356
10.622653 4.301311 1.143686 0.659017 0.699637 -0.275918
0.525987 3.839049 2.260297 0.097385 0.039460 0.994446
10.935405 2.085774 2.078170 -0.725394 -0.677084 0.123753
-13.178768 3.911017 2.488436 -0.157170 0.480392 0.862819
12.184560 2.400783 1.644897 0.263527 -0.490005 -0.830897
1.992998 -3.970612 -1.390796 -0.303232 -0.151616 -0.940764
3.844011 -16.838152 4.796845 -0.407422 -0.127049 0.904355
0.049046 12.817948 1.108694 -0.002838 -0.859676 0.510788
0.995241 -4.615007 0.504569 -0.974303 -0.222449 0.034944
-12.380582 2.002450 2.156715 -0.823023 0.341136 -0.454115
-12.540429 1.715876 2.529155 -0.242409 0.587725 0.771844
-12.252052 2.263473 2.255144 -0.056093 0.423322 0.904202
4.211811 -17.009642 3.612966 -0.040223 -0.893216 0.447737
-4.082454 -16.945795 3.764454 -0.602557 -0.783349 0.152379
-13.409145 3.736033 2.219107 -0.933866 0.223212 -0.279336
-12.950303 3.649053 1.848506 -0.544053 -0.426954 -0.722282
0.036371 9.943629 -2.139614 0.053621 0.113071 -0.992126
-1.385190 11.528995 -1.816195 -0.101932 0.446852 -0.888760
1.427622 15.442141 -0.379986 0.999512 0.005615 -0.030305
-3.869765 8.885968 -1.318835 0.039399 -0.522294 -0.851833
-3.572321 -16.847088 3.758506 0.847041 -0.472274 0.243782
-4.647537 -16.568150 3.919285 -0.846980 0.516892 0.124088
-4.499567 -16.549616 3.383895 0.058199 0.962188 0.266091
1.218123 14.970689 1.257575 0.909238 -0.011902 0.416059
-7.572157 6.652175 1.025661 -0.172430 0.589343 0.789239
-10.782496 2.811624 2.233306 0.381664 0.157109 0.910825
3.406262 -16.958546 -0.642276 -0.834864 -0.533616 -0.134892
4.875960 -17.098581 1.136513 0.434492 -0.883419 -0.175298
4.693210 -16.650244 3.853613 -0.687796 0.368358 0.625477
-12.485443 2.639316 1.597748 -0.113010 -0.456557 -0.882473
4.876426 -16.535181 3.585975 0.468764 0.875301 0.118625
-12.313526 3.345750 1.787417 -0.987274 -0.157994 -0.016297
-4.337318 -16.494904 3.779359 0.434004 0.855159 0.283303
6.665309 5.908938 -0.724258 -0.134739 -0.259316 -0.956328
12.683582 2.458978 2.101773 0.290201 -0.749626 -0.594806
13.139612 1.900584 2.455277 0.034028 0.402997 0.914548
-1.371148 14.634084 -0.469180 -0.941923 -0.258034 -0.214820
-4.482049 -16.871189 4.594790 0.546220 -0.026460 0.837184
-1.211699 -5.233736 0.766060 0.925138 -0.238136 0.295541
-0.873426 -3.771210 -0.299633 0.923368 -0.184729 -0.336528
4.945115 -16.797894 4.453082 -0.236885 0.302774 0.923124
5.115714 -16.783005 4.280422 0.849086 0.446791 0.281747
5.025165 -17.103804 4.327497 0.135655 -0.915342 0.379101
-12.613585 2.490933 2.134538 -0.056551 0.352153 0.934202
-5.203738 -16.957266 3.342705 -0.580859 -0.812555 -0.048006
-5.143268 -16.910273 4.055744 0.238411 -0.231452 0.943144
3.687865 -16.504589 3.667002 -0.624714 0.725303 0.289193
12.763721 4.011495 2.048504 0.000916 0.933500 0.358501
-5.660153 7.658956 1.275774 -0.005860 -0.025391 0.999634
4.258315 11.288877 -0.063736 0.608661 0.786584 0.103793
3.582751 -16.890587 3.803669 -0.823176 -0.502609 0.264046
-5.304931 -16.597548 3.357187 -0.760308 0.570818 0.309946
-5.291481 -16.861687 3.025976 -0.203009 -0.596881 0.776208
-2.693465 -7.233860 -0.835473 0.238136 -0.002625 -0.971221
10.771295 2.970471 1.220842 -0.132969 -0.609119 -0.781823
4.111421 -16.857027 3.746448 0.871120 -0.353862 0.340434
-13.082743 1.127581 2.982476 -0.384381 -0.114566 0.916013
4.566385 -14.948052 0.506472 0.863369 0.208686 0.459334
4.436782 -16.936581 -1.061023 0.656545 -0.387371 -0.647206
3.816894 -17.080261 -1.221205 -0.243751 -0.594531 -0.766198
-1.177248 5.393003 -1.500202 -0.246834 -0.169866 -0.954039
-0.327973 15.069566 1.657504 -0.371380 -0.112980 0.921567
-4.724448 -17.067959 4.424529 -0.446242 -0.886410 0.122929
-0.358841 12.778998 1.655211 -0.443983 -0.846889 0.292581
-1.066188 13.258185 0.875589 -0.799951 -0.590747 0.105075
5.395518 -17.065176 3.277905 -0.408368 -0.873867 0.263710
-6.235578 7.911593 0.937920 -0.613178 0.401929 0.679983
0.182345 13.866509 2.000730 0.229255 -0.282388 0.931486
0.486592 13.722892 1.852461 0.344646 -0.142186 0.927885
11.863884 1.836348 2.228076 0.970824 -0.066286 -0.230323
-1.362022 14.196212 0.251300 -0.966216 -0.257485 -0.007965
-6.956010 7.303647 0.304052 -0.700613 0.679830 0.216712
3.623647 11.433974 -0.853470 0.447462 0.814539 -0.369091
1.714538 -5.735287 1.434825 -0.674001 -0.276742 0.684896
-0.000940 12.934094 2.064709 -0.006897 -0.402203 0.915494
-0.712145 9.940257 1.943579 0.037416 0.371685 0.927580
-2.721091 10.486600 1.209298 -0.207526 0.467269 0.859401
4.514520 -14.277957 -0.380251 0.895016 0.006836 -0.445936
-4.943304 9.469138 0.443185 -0.572649 0.406812 0.711692
-5.384425 -16.806198 3.939101 -0.749168 0.151830 0.644704
-0.093721 14.140208 2.084147 -0.410627 -0.351573 0.841273
-0.089678 14.353098 2.137719 -0.712333 -0.467940 0.523026
-4.704588 -16.513859 3.585785 0.275948 0.856685 0.435743
-13.815016 1.300320 2.529408 -0.887326 -0.415632 -0.199652
-4.083340 -16.551031 3.485095 -0.233192 0.880612 0.412458
-0.000816 4.225188 1.892391 -0.186865 -0.403150 0.895840
-2.591427 9.905023 -1.832072 -0.255135 -0.001343 -0.966887
1.209420 11.068183 -2.052532 0.105533 0.308512 -0.945341
0.974647 13.132043 -0.704844 0.818171 0.114414 -0.563463
1.477391 14.890702 0.041419 0.992828 -0.082400 0.086581
1.140486 3.379233 -1.404964 0.073855 0.277108 -0.957976
0.368498 13.364841 1.852858 0.364025 -0.071718 0.928587
1.478459 12.470599 -0.826110 0.605823 0.768975 -0.203925
-0.853022 9.786281 -2.337579 -0.005524 0.065950 -0.997803
-13.384101 3.572736 2.327722 -0.619953 -0.693869 0.366283
2.908138 2.905059 -0.665309 0.851955 0.203619 -0.482376
-13.511548 1.506388 2.288306 -0.473067 -0.218024 -0.853603
-1.734614 -7.048337 0.605894 0.895901 -0.315073 0.313120
0.468632 8.317855 -2.169192 -0.160253 -0.096377 -0.982330
-1.997432 -4.013930 -1.378353 0.302042 -0.164769 -0.938932
-4.743574 -16.819265 4.529215 -0.685934 0.365368 0.629261
4.456242 -16.867397 4.570841 -0.657002 -0.108158 0.746055
4.744079 -16.815948 4.519695 0.563585 0.490951 0.664296
12.419132 1.136983 2.892777 0.785668 0.046571 0.616871
0.011758 5.688262 2.090661 0.001343 -0.046297 0.998901
-4.887929 -17.082899 4.191517 0.209449 -0.958098 0.195379
-0.193642 13.389716 1.909995 -0.204077 0.007904 0.978912
-13.013205 1.625882 2.418440 0.620685 -0.581133 0.526292
1.416927 14.169803 0.178106 0.948851 -0.263985 -0.173132
1.387760 14.445609 -0.014240 0.974090 -0.195349 -0.113681
4.149769 -17.076429 4.367876 0.334910 -0.933256 0.129704
-13.115606 1.571877 2.212728 0.259926 -0.742882 -0.616840
-0.201895 13.676571 1.974516 -0.218177 -0.180151 0.959105
0.017904 14.213195 2.342548 -0.117557 -0.681936 0.721885
3 0 1 2
3 3 4 5
3 6 7 8
3 9 10 11
3 12 13 14
3 15 16 17
3 18 11 19
3 20 21 22
3 23 24 25
3 26 27 28
3 29 30 31
3 32 33 34
3 35 36 37
3 38 39 40
3 41 42 43
3 44 45 46
3 47 48 49
3 50 51 52
3 53 54 55
3 56 57 58
3 59 60 61
3 62 63 64
3 52 65 66
3 67 68 69
3 70 71 72
3 1 0 73
3 74 75 76
3 77 78 79
3 80 81 82
3 83 84 85
3 61 86 87
3 31 88 44
3 89 90 0
3 91 92 93
3 94 95 96
3 97 98 99
3 22 100 20
3 101 42 102
3 103 104 105
3 106 23 107
3 25 108 86
3 6 109 110
3 111 112 113
3 114 115 116
3 117 118 119
3 120 121 122
3 123 124 125
3 126 127 128
3 129 130 131
3 132 133 117
3 134 135 136
3 137 138 139
3 109 140 110
3 141 142 143
3 7 144 141
3 127 145 146
3 147 148 149
3 139 150 151
3 3 152 153
3 66 103 74
3 154 155 156
3 157 158 77
3 159 160 61
3 161 162 163
3 164 29 165
3 166 167 168
3 169 34 170
3 1 73 171
3 61 60 86
3 172 173 4
3 56 58 110
3 174 175 176
3 177 178 179
3 46 70 44
3 180 181 182
3 183 184 119
3 185 186 27
3 187 188 189
3 168 190 166
3 191 192 193
3 194 195 196
3 197 198 199
3 131 148 200
3 192 201 202
3 203 195 204
3 112 172 205
3 206 24 120
3 207 83 85
3 208 209 210
3 211 212 213
3 214 215 169
3 216 217 17
3 218 219 122
3 220 221 222
3 223 48 224
3 18 19 225
3 226 79 118
3 227 228 187
3 72 208 70
3 174 201 229
3 111 223 224
3 115 162 116
3 30 230 88
3 231 232 233
3 234 228 227
3 235 36 14
3 106 76 75
3 53 55 236
3 237 38 40
3 89 171 136
3 111 185 112
3 238 239 155
3 156 3 179
3 195 203 196
3 116 162 161
3 240 241 242
3 243 244 194
3 245 199 78
3 239 3 156
3 47 246 48
3 81 247 248
3 117 184 249
3 250 251 252
3 253 80 238
3 122 219 206
3 254 255 51
3 256 257 123
3 71 14 258
3 259 260 209
3 261 262 135
3 263 134 264
3 265 266 211
3 219 218 267
3 72 268 208
3 102 269 270
3 271 191 272
3 273 266 166
3 274 275 118
3 276 277 220
3 219 278 206
3 279 280 281
3 177 179 282
3 18 283 11
3 284 236 62
3 285 22 21
3 65 286 66
3 263 287 288
3 134 289 264
3 290 291 292
3 293 294 295
3 296 297 246
3 92 147 298
3 102 270 299
3 105 300 301
3 50 302 76
3 26 143 303
3 304 135 288
3 45 44 88
3 154 305 306
3 307 308 309
3 310 271 311
3 312 313 314
3 292 315 290
3 316 80 300
3 212 317 318
3 13 258 14
3 43 42 16
3 319 301 320
3 321 322 164
3 268 323 146
3 166 237 273
3 272 311 271
3 262 324 325
3 326 246 297
3 327 328 329
3 330 331 171
3 332 333 334
3 335 229 201
3 204 68 67
3 336 337 175
3 128 338 339
3 244 243 266
3 256 125 166
3 78 181 340
3 341 342 9
3 336 175 114
3 23 25 107
3 343 254 137
3 5 282 179
3 275 344 226
3 345 346 347
3 348 349 186
3 95 94 350
3 73 351 134
3 120 24 352
3 255 65 51
3 54 353 354
3 218 211 267
3 208 210 70
3 139 96 95
3 14 45 235
3 196 355 243
3 54 251 356
3 357 358 240
3 278 359 206
3 360 296 47
3 33 361 362
3 336 363 364
3 365 176 57
3 210 366 31
3 333 332 367
3 368 369 370
3 175 174 229
3 371 372 373
3 269 144 207
3 143 26 28
3 71 46 14
3 253 81 80
3 263 374 375
3 24 359 108
3 376 312 377
3 257 166 190
3 267 329 378
3 171 89 330
3 379 307 140
3 30 164 230
3 380 277 213
3 294 63 295
3 324 381 325
3 180 345 197
3 382 328 203
3 319 320 56
3 353 53 284
3 282 173 383
3 384 232 231
3 355 196 327
3 97 59 385
3 386 282 93
3 387 388 389
3 297 296 278
3 174 176 365
3 107 99 76
3 101 17 16
3 186 28 27
3 13 314 258
3 180 197 390
3 247 306 248
3 293 295 391
3 392 324 393
3 376 377 35
3 394 395 322
3 208 396 209
3 375 242 397
3 302 52 66
3 250 311 251
3 33 32 215
3 398 391 284
3 399 400 18
3 126 373 401
3 160 159 372
3 202 201 174
3 402 241 261
3 104 300 105
3 89 136 403
3 30 29 164
3 213 265 211
3 129 404 405
3 222 276 220
3 182 406 180
3 362 361 407
3 237 166 382
3 8 141 280
3 406 408 198
3 358 357 409
3 374 240 242
3 19 410 225
3 324 392 381
3 411 326 297
3 203 67 412
3 57 56 320
3 206 359 24
3 273 413 266
3 88 414 235
3 189 234 227
3 225 410 415
3 416 364 417
3 279 308 379
3 45 88 235
3 418 419 406
3 95 164 322
3 360 278 296
3 156 179 154
3 38 237 412
3 420 419 418
3 15 91 93
3 63 294 64
3 99 107 60
3 185 111 348
3 272 163 55
3 357 407 214
3 95 230 164
3 191 193 163
3 90 409 421
3 102 41 26
3 422 11 423
3 131 130 424
3 44 70 210
3 425 211 243
3 35 12 14
3 382 203 412
3 193 161 163
3 328 196 203
3 129 405 132
3 192 335 201
3 59 97 99
3 163 162 236
3 285 351 22
3 289 134 351
3 141 144 142
3 366 210 209
3 304 287 426
3 47 427 360
3 178 417 305
3 326 352 246
3 79 226 157
3 303 142 144
3 384 424 428
3 422 429 430
3 70 46 71
3 425 234 188
3 431 193 192
3 405 157 133
3 432 221 380
3 433 428 390
3 410 400 399
3 100 388 434
3 424 384 231
3 139 151 137
3 427 108 360
3 435 298 149
3 114 310 115
3 68 204 195
3 158 435 77
3 291 290 421
3 192 202 431
3 147 149 298
3 298 435 299
3 200 436 437
3 438 80 316
3 316 300 104
3 357 264 407
3 251 272 356
3 264 357 240
3 146 323 127
3 421 409 34
3 194 68 195
3 377 312 439
3 157 77 79
3 440 225 415
3 439 314 13
3 441 376 442
3 36 35 14
3 298 270 84
3 130 180 390
3 106 75 349
3 389 388 90
3 443 274 118
3 413 412 266
3 48 348 224
3 254 138 137
3 206 120 122
3 323 314 127
3 242 150 397
3 275 274 344
3 253 238 155
3 426 444 304
3 329 267 211
3 12 377 439
3 357 170 409
3 193 431 364
3 301 319 105
3 378 328 278
3 421 34 33
3 307 105 140
3 344 443 133
3 287 304 288
3 445 446 373
3 265 277 447
3 442 448 98
3 442 98 385
3 182 419 420
3 22 351 90
3 367 354 430
3 52 302 50
3 449 402 304
3 242 241 449
3 450 47 49
3 451 144 7
3 452 376 441
3 453 454 51
3 303 269 26
3 297 278 328
3 158 455 435
3 456 426 255
3 20 434 21
3 217 147 91
3 348 48 246
3 422 423 457
3 270 85 84
3 450 427 47
3 312 458 459
3 229 335 114
3 332 354 367
3 124 168 167
3 412 244 266
3 337 58 57
3 139 322 395
3 342 18 460
3 285 387 351
3 461 315 292
3 15 383 16
3 19 462 410
3 379 463 307
3 38 412 413
3 462 63 62
3 272 191 163
3 65 52 51
3 61 160 59
3 115 400 462
3 18 225 399
3 80 82 300
3 436 157 405
3 297 328 411
3 281 28 186
3 199 390 197
3 170 357 214
3 368 397 464
3 179 305 154
3 460 9 342
3 438 239 238
3 139 138 96
3 465 321 466
3 9 460 10
3 213 277 265
3 268 401 467
3 118 79 119
3 407 361 214
3 262 261 324
3 68 194 69
3 442 35 448
3 111 224 348
3 15 93 282
3 391 63 462
3 180 346 345
3 181 117 249
3 462 19 391
3 100 22 90
3 468 112 205
3 447 222 221
3 205 172 4
3 157 217 158
3 446 469 373
3 229 114 175
3 399 225 440
3 24 108 25
3 87 470 61
3 470 465 466
3 349 281 186
3 264 374 263
3 402 135 304
3 282 5 173
3 5 179 3
3 187 355 327
3 202 365 81
3 363 336 116
3 453 99 94
3 324 261 358
3 394 152 471
3 111 113 223
3 323 258 314
3 381 392 472
3 391 353 284
3 168 124 123
3 119 184 117
3 150 242 343
3 252 332 334
3 380 212 432
3 410 462 400
3 187 189 227
3 78 408 181
3 65 426 287
3 161 193 363
3 105 307 103
3 27 473 185
3 339 373 128
3 471 152 369
3 474 461 291
3 430 334 333
3 250 115 310
3 370 316 368
3 468 3 153
3 83 207 451
3 425 355 234
3 335 310 114
3 336 364 475
3 199 245 233
3 84 83 93
3 387 285 21
3 368 286 397
3 153 476 113
3 32 169 215
3 418 406 420
3 403 136 135
3 406 198 180
3 1 171 331
3 263 397 286
3 252 251 54
3 138 254 454
3 416 475 364
3 361 33 214
3 218 122 121
3 207 144 451
3 93 83 386
3 374 242 375
3 64 294 293
3 413 39 38
3 424 245 131
3 402 449 241
3 468 153 113
3 300 82 301
3 299 455 101
3 422 430 11
3 288 135 263
3 75 279 281
3 244 67 69
3 265 447 125
3 255 254 456
3 85 270 207
3 43 172 41
3 317 212 211
3 467 396 208
3 464 471 369
3 305 417 477
3 477 431 202
3 1 331 2
3 157 226 133
3 478 440 415
3 100 434 20
3 95 322 139
3 40 39 273
3 441 385 371
3 217 157 200
3 8 7 141
3 408 78 198
3 132 405 133
3 112 473 172
3 226 118 275
3 340 119 79
3 391 19 353
3 240 261 241
3 181 180 117
3 197 345 479
3 303 144 269
3 200 148 217
3 121 318 218
3 480 479 347
3 260 259 159
3 432 447 221
3 409 393 358
3 202 174 365
3 481 277 276
3 2 331 330
3 60 25 86
3 267 278 219
3 102 299 101
3 260 61 466
3 228 234 355
3 482 74 309
3 253 154 306
3 379 280 279
3 321 465 322
3 62 398 284
3 327 196 328
3 218 318 317
3 413 273 39
3 283 18 483
3 474 315 461
3 28 141 143
3 476 152 394
3 349 23 106
3 193 364 363
3 376 35 442
3 278 267 378
3 132 117 180
3 159 61 260
3 406 419 408
3 253 247 81
3 71 323 72
3 83 451 386
3 187 228 355
3 467 208 268
3 213 212 380
3 57 320 365
3 183 181 249
3 417 364 477
3 483 18 342
3 140 109 8
3 313 128 314
3 115 62 236
3 453 138 454
3 289 362 264
3 477 364 431
3 289 351 387
3 177 7 6
3 341 283 483
3 465 476 394
3 476 465 49
3 60 59 99
3 397 263 375
3 190 123 257
3 152 239 438
3 88 230 414
3 455 216 101
3 428 424 130
3 411 318 326
3 270 269 207
3 254 51 454
3 147 92 91
3 78 77 245
3 425 329 211
3 305 179 178
3 139 395 150
3 26 41 473
3 281 280 28
3 183 119 340
3 148 147 217
3 349 24 23
3 452 484 376
3 92 84 93
3 308 482 309
3 429 460 250
3 340 181 183
3 443 118 133
3 67 203 204
3 149 148 131
3 90 89 403
3 132 180 130
3 123 190 168
3 116 336 114
3 98 94 99
3 367 430 333
3 370 438 316
3 200 157 436
3 432 125 447
3 76 106 107
3 125 256 123
3 156 155 239
3 74 103 309
3 15 17 91
3 355 425 243
3 192 191 335
3 125 124 265
3 78 340 79
3 103 307 309
3 335 271 310
3 277 481 447
3 178 110 58
3 290 389 421
3 420 406 182
3 433 199 233
3 198 346 180
3 290 315 485
3 328 378 329
3 486 487 401
3 101 216 17
3 77 435 245
3 272 55 356
3 84 92 298
3 209 260 366
3 377 12 35
3 21 388 387
3 264 362 407
3 349 75 281
3 478 399 440
3 160 372 371
3 432 328 382
3 388 100 90
3 432 411 328
3 433 232 488
3 54 53 353
3 479 480 346
3 126 401 145
3 487 467 401
3 178 6 110
3 138 453 94
3 236 55 163
3 128 373 126
3 188 187 327
3 197 346 198
3 66 74 302
3 469 371 373
3 414 230 350
3 110 105 319
3 349 352 24
3 457 10 429
3 160 385 59
3 220 380 221
3 135 402 261
3 260 29 366
3 372 159 486
3 382 125 432
3 8 280 379
3 0 2 330
3 439 13 12
3 382 412 237
3 318 120 326
3 232 384 488
3 217 216 455
3 359 278 360
3 152 438 369
3 443 344 274
3 11 353 19
3 433 390 199
3 430 429 334
3 450 49 470
3 437 436 405
3 368 464 369
3 289 387 389
3 470 466 61
3 393 472 392
3 76 453 50
3 240 374 264
3 41 172 473
3 64 293 391
3 105 110 140
3 273 237 40
3 244 412 67
3 127 314 128
3 240 358 261
3 165 260 466
3 451 7 386
3 295 63 391
3 41 102 42
3 339 458 445
3 172 43 173
3 217 455 158
3 425 188 327
3 140 8 379
3 115 250 400
3 88 31 30
3 33 215 214
3 468 205 3
3 354 353 11
3 233 232 433
3 120 352 326
3 393 324 358
3 73 0 90
3 268 72 323
3 383 173 43
3 113 476 223
3 189 188 234
3 354 332 252
3 350 94 98
3 178 177 6
3 404 131 200
3 489 315 474
3 184 183 249
3 400 250 460
3 127 126 145
3 3 239 152
3 211 218 317
3 437 404 200
3 47 296 246
3 230 95 350
3 233 245 424
3 385 441 442
3 321 165 466
3 405 404 437
3 289 389 485
3 11 283 9
3 81 365 82
3 226 344 133
3 460 429 10
3 112 468 113
3 342 341 483
3 65 287 286
3 153 152 476
3 441 371 452
3 263 286 287
3 478 410 399
3 307 463 308
3 455 299 435
3 35 37 448
3 477 202 248
3 299 270 298
3 337 336 475
3 28 280 141
3 464 395 471
3 242 449 343
3 104 66 286
3 143 142 303
3 34 169 32
3 15 282 383
3 252 54 354
3 290 485 389
3 373 372 401
3 53 236 284
3 21 434 388
3 76 99 453
3 130 390 428
3 480 347 346
3 7 177 386
3 71 258 323
3 316 104 368
3 26 269 102
3 202 81 248
3 484 452 469
3 489 362 289
3 233 424 231
3 444 426 456
3 354 11 430
3 289 485 489
3 124 167 265
3 457 429 422
3 210 31 44
3 42 101 16
3 75 482 279
3 334 250 252
3 488 428 433
3 214 169 170
3 162 115 236
3 138 94 96
3 90 325 409
3 146 145 401
3 432 212 318
3 457 423 10
3 4 3 205
3 29 31 366
3 14 46 45
3 477 306 305
3 222 447 481
3 18 400 460
3 130 129 132
3 244 69 194
3 408 182 181
3 134 263 135
3 198 78 199
3 266 265 167
3 76 302 74
3 346 197 479
3 277 380 220
3 120 318 121
3 449 304 444
3 360 108 359
3 56 110 319
3 55 54 356
3 178 416 417
3 371 469 452
3 103 66 104
3 291 461 292
3 109 6 8
3 312 314 439
3 490 484 469
3 48 223 49
3 318 411 432
3 245 149 131
3 222 481 276
3 129 131 404
3 250 310 311
3 394 471 395
3 160 371 385
3 362 421 33
3 474 291 362
3 36 235 414
3 25 60 107
3 421 389 90
3 482 308 279
3 409 325 393
3 337 475 58
3 154 253 155
3 322 465 394
3 416 58 475
3 337 176 175
3 51 50 453
3 254 343 456
3 29 260 165
3 351 73 90
3 325 472 393
3 170 34 409
3 419 182 408
3 427 450 86
3 445 373 339
3 253 306 247
3 125 382 166
3 401 268 146
3 472 325 381
3 211 266 243
3 176 337 57
3 259 209 396
3 64 391 398
3 350 98 414
3 135 262 403
3 348 186 185
3 334 429 250
3 450 87 86
3 49 223 476
3 477 248 306
3 427 86 108
3 196 243 194
3 118 117 133
3 426 65 255
3 458 339 491
3 167 166 266
3 283 341 9
3 4 173 5
3 256 166 257
3 482 75 74
3 245 435 149
3 291 421 362
3 97 385 98
3 217 91 17
3 151 150 343
3 11 10 423
3 49 465 470
3 150 395 464
3 90 262 325
3 473 112 185
3 448 414 98
3 473 27 26
3 478 415 410
3 428 488 384
3 321 164 165
3 315 489 485
3 330 89 0
3 246 352 348
3 370 369 438
3 115 462 62
3 489 474 362
3 329 425 327
3 116 161 363
3 191 271 335
3 397 150 464
3 386 177 282
3 286 368 104
3 272 251 311
3 262 90 403
3 444 343 449
3 372 486 401
3 438 238 80
3 137 151 343
3 470 87 450
3 345 347 479
3 16 383 43
3 398 62 64
3 444 456 343
3 136 171 73
3 348 352 349
3 134 136 73
3 320 82 365
3 82 320 301
3 58 416 178
3 308 463 379
3 458 491 459
3 339 338 491
3 313 459 491
3 312 459 313
3 490 469 446
3 445 490 446
3 376 484 490
3 376 490 312
3 458 312 490
3 458 490 445
3 414 448 37
3 414 37 36
3 486 159 487
3 259 487 159
3 259 467 487
3 259 396 467
3 338 128 313
3 338 313 491
