ply
format ascii 1.0
comment Created by Blender 2.61 (sub 0) - www.blender.org, source file: ''
element vertex 477
property float x
property float y
property float z
property float nx
property float ny
property float nz
element face 948
property list uchar uint vertex_indices
end_header
-0.452160 -0.057961 0.052894 -0.743736 0.008759 0.668355
-0.450859 -0.062626 0.039258 -0.757469 -0.015809 -0.652638
-0.450221 -0.101058 0.051707 -0.540086 -0.719535 0.436506
0.450221 -0.101058 0.051707 0.540086 -0.719535 0.436506
0.450859 -0.062626 0.039258 0.757469 -0.015809 -0.652638
0.452160 -0.057961 0.052894 0.743736 0.008759 0.668355
-0.291289 -0.972785 0.187972 -0.814264 0.574511 0.082949
-0.291618 -0.973082 0.163891 -0.304361 -0.130314 0.943571
-0.291847 -0.995181 0.165527 -0.081118 -0.981384 0.173956
0.291847 -0.995181 0.165527 0.081118 -0.981384 0.173956
0.291618 -0.973082 0.163891 0.304361 -0.130314 0.943571
0.291289 -0.972785 0.187972 0.814264 0.574511 0.082949
-0.057795 0.878600 0.060616 -0.559832 -0.165502 0.811884
-0.048748 0.889280 0.073152 -0.338206 -0.281320 0.898007
-0.063639 0.899490 0.065916 -0.714591 0.192846 0.672384
0.063639 0.899490 0.065916 0.714591 0.192846 0.672384
0.048748 0.889280 0.073152 0.338206 -0.281320 0.898007
0.057795 0.878600 0.060616 0.559832 -0.165502 0.811884
-0.271614 -0.985626 0.188076 0.010926 -0.799463 0.600574
-0.247335 -0.996165 0.184975 0.193152 -0.868496 0.456435
0.247335 -0.996165 0.184975 -0.193152 -0.868496 0.456435
0.271614 -0.985626 0.188076 -0.010926 -0.799463 0.600574
-0.466909 -0.122604 0.079900 -0.493362 -0.742454 -0.453108
-0.469954 -0.112113 0.091449 -0.688223 -0.169836 0.705313
-0.463761 -0.079811 0.068316 -0.587420 -0.109806 -0.801782
0.463761 -0.079811 0.068316 0.587420 -0.109806 -0.801782
0.469954 -0.112113 0.091449 0.688223 -0.169836 0.705313
0.466909 -0.122604 0.079900 0.493362 -0.742454 -0.453108
-0.473991 -0.105372 0.153691 0.476577 -0.872158 -0.110233
-0.481466 -0.097100 0.145636 -0.336314 -0.472884 -0.814386
-0.461229 -0.060684 0.145127 0.898679 -0.229133 0.373913
0.461229 -0.060684 0.145127 -0.898679 -0.229133 0.373913
0.481466 -0.097100 0.145636 0.336314 -0.472884 -0.814386
0.473991 -0.105372 0.153691 -0.476577 -0.872158 -0.110233
-0.071091 0.868139 0.047831 -0.890744 -0.054353 0.451186
-0.089522 0.884279 -0.031518 -0.995117 -0.026795 0.094699
-0.085511 0.860836 -0.025063 -0.988556 -0.143406 0.046358
0.085511 0.860836 -0.025063 0.988556 -0.143406 0.046358
0.089522 0.884279 -0.031518 0.995117 -0.026795 0.094699
0.071091 0.868139 0.047831 0.890744 -0.054353 0.451186
0.000000 0.993743 -0.086862 0.000000 0.901639 -0.432417
-0.082680 0.954203 -0.042965 -0.795404 0.605609 -0.023194
0.000000 0.981560 0.028197 0.000000 0.926389 0.376507
0.082680 0.954203 -0.042965 0.795404 0.605609 -0.023194
-0.077000 0.519338 0.108208 -0.100803 0.088504 0.990936
-0.195866 0.567070 0.046441 -0.443709 0.061983 0.894009
-0.141164 0.488732 0.082029 -0.484390 -0.290078 0.825343
0.141164 0.488732 0.082029 0.484390 -0.290078 0.825343
0.195866 0.567070 0.046441 0.443709 0.061983 0.894009
0.077000 0.519338 0.108208 0.100803 0.088504 0.990936
-0.215238 -0.966021 0.058657 0.731223 -0.674734 -0.099857
-0.272535 -1.001520 0.014570 -0.153081 -0.987884 -0.024598
-0.198393 -0.993066 -0.073739 0.783013 -0.538682 -0.310892
0.198393 -0.993066 -0.073739 -0.783013 -0.538682 -0.310892
0.272535 -1.001520 0.014570 0.153081 -0.987884 -0.024598
0.215238 -0.966021 0.058657 -0.731223 -0.674734 -0.099857
-0.126426 -0.102456 0.093217 0.028413 0.018281 0.999420
-0.178332 -0.343789 0.075088 -0.377422 -0.049165 0.924711
-0.119614 -0.322202 0.076093 0.456282 -0.180761 0.871242
0.119614 -0.322202 0.076093 -0.456282 -0.180761 0.871242
0.178332 -0.343789 0.075088 0.377422 -0.049165 0.924711
0.126426 -0.102456 0.093217 -0.028413 0.018281 0.999420
-0.218392 -0.964503 0.188899 0.461104 0.861507 0.212500
-0.235128 -0.967001 0.210917 -0.373669 0.923338 0.088290
-0.213827 -0.984112 0.241920 0.792688 -0.061190 0.606525
0.213827 -0.984112 0.241920 -0.792688 -0.061190 0.606525
0.235128 -0.967001 0.210917 0.373669 0.923338 0.088290
0.218392 -0.964503 0.188899 -0.461104 0.861507 0.212500
-0.212780 0.532353 0.020326 -0.168981 -0.585009 0.793207
-0.153273 0.455286 0.047305 -0.720939 -0.303568 0.622913
0.153273 0.455286 0.047305 0.720939 -0.303568 0.622913
0.212780 0.532353 0.020326 0.168981 -0.585009 0.793207
-0.445191 -0.005186 0.047379 -0.836482 -0.022584 -0.547502
0.445191 -0.005186 0.047379 0.836482 -0.022584 -0.547502
-0.161282 0.198151 -0.071299 -0.787011 0.217414 -0.577319
-0.202612 -0.088589 -0.072495 -0.825434 0.051729 -0.562090
-0.221865 -0.014830 -0.011790 -0.988983 0.146825 0.018006
0.221865 -0.014830 -0.011790 0.988983 0.146825 0.018006
0.202612 -0.088589 -0.072495 0.825434 0.051729 -0.562090
0.161282 0.198151 -0.071299 0.787011 0.217414 -0.577319
0.000000 0.922081 -0.140457 0.000000 0.212714 -0.977111
-0.084377 0.904945 -0.092334 -0.778802 0.073855 -0.622883
0.084377 0.904945 -0.092334 0.778802 0.073855 -0.622883
-0.430796 -0.028562 0.062702 0.784570 -0.547319 0.291299
-0.432856 -0.048597 0.049226 0.885525 -0.388134 0.255318
0.432856 -0.048597 0.049226 -0.885525 -0.388134 0.255318
0.430796 -0.028562 0.062702 -0.784570 -0.547319 0.291299
-0.036826 0.660544 0.046213 -0.144383 0.500229 0.853755
-0.067945 0.740441 -0.058107 -0.777154 0.582202 -0.238838
-0.155870 0.686037 -0.060079 -0.357952 0.872646 0.332163
0.155870 0.686037 -0.060079 0.357952 0.872646 0.332163
0.067945 0.740441 -0.058107 0.777154 0.582202 -0.238838
0.036826 0.660544 0.046213 0.144383 0.500229 0.853755
0.000000 0.704108 0.037016 0.000000 0.174078 0.984710
-0.055031 0.772529 -0.006018 -0.900174 -0.295297 0.320109
0.000000 0.637776 0.052634 0.000000 0.397382 0.917631
0.055031 0.772529 -0.006018 0.900174 -0.295297 0.320109
-0.452070 -0.081125 0.068462 0.565874 -0.263802 -0.781121
0.452070 -0.081125 0.068462 -0.565874 -0.263802 -0.781121
-0.097274 0.297852 0.067878 -0.533891 0.013489 0.845424
-0.156417 0.280659 0.005144 -0.954650 0.040407 0.294870
-0.150133 0.146498 0.058142 -0.610492 0.060640 0.789666
0.150133 0.146498 0.058142 0.610492 0.060640 0.789666
0.156417 0.280659 0.005144 0.954650 0.040407 0.294870
0.097274 0.297852 0.067878 0.533891 0.013489 0.845424
0.000000 -0.033496 0.049884 0.000000 -0.816828 0.576861
0.000000 -0.000008 0.081098 0.000000 -0.440565 0.897702
-0.055952 0.008611 0.062157 0.015839 -0.162938 0.986480
0.055952 0.008611 0.062157 -0.015839 -0.162938 0.986480
-0.242114 -0.800719 0.017730 -0.445845 0.072970 0.892117
-0.220236 -0.898589 0.040973 0.442946 0.510361 0.737053
-0.208929 -0.815397 0.013013 0.675222 0.022950 0.737236
0.208929 -0.815397 0.013013 -0.675222 0.022950 0.737236
0.220236 -0.898589 0.040973 -0.442946 0.510361 0.737053
0.242114 -0.800719 0.017730 0.445845 0.072970 0.892117
-0.436489 0.068564 0.044384 -0.750633 0.109409 -0.651540
-0.400831 0.062857 0.030734 0.612537 -0.034211 -0.789666
-0.423574 0.008265 0.022939 -0.014863 -0.159642 -0.987030
0.423574 0.008265 0.022939 0.014863 -0.159642 -0.987030
0.400831 0.062857 0.030734 -0.612537 -0.034211 -0.789666
0.436489 0.068564 0.044384 0.750633 0.109409 -0.651540
-0.289666 0.619539 -0.037439 -0.759728 0.635792 0.136204
-0.183856 0.676890 -0.013437 -0.269265 0.878445 0.394696
-0.214154 0.662815 -0.084128 -0.461348 0.765984 -0.447615
0.214154 0.662815 -0.084128 0.461348 0.765984 -0.447615
0.183856 0.676890 -0.013437 0.269265 0.878445 0.394696
0.289666 0.619539 -0.037439 0.759728 0.635792 0.136204
0.000000 0.068662 0.092592 0.000000 -0.148869 0.988830
-0.253435 0.579439 -0.113631 -0.395886 0.138066 -0.907834
-0.286255 0.603150 -0.076950 -0.673086 0.494095 -0.550249
0.286255 0.603150 -0.076950 0.673086 0.494095 -0.550249
0.253435 0.579439 -0.113631 0.395886 0.138066 -0.907834
0.000000 0.371857 0.103249 0.000000 -0.008454 0.999939
-0.025335 -0.012128 -0.142219 0.471999 -0.450056 -0.758019
-0.037280 0.080318 -0.165010 0.141057 0.078829 -0.986847
-0.008673 0.093966 -0.147949 0.675710 0.042604 -0.735923
0.008673 0.093966 -0.147949 -0.675710 0.042604 -0.735923
0.037280 0.080318 -0.165010 -0.141057 0.078829 -0.986847
0.025335 -0.012128 -0.142219 -0.471999 -0.450056 -0.758019
-0.197976 -0.827687 -0.032742 0.992828 -0.085116 0.083590
-0.188942 -0.887635 -0.023347 0.985565 -0.163976 -0.041688
-0.205736 -0.889186 -0.065809 0.872799 -0.058901 -0.484451
0.205736 -0.889186 -0.065809 -0.872799 -0.058901 -0.484451
0.188942 -0.887635 -0.023347 -0.985565 -0.163976 -0.041688
0.197976 -0.827687 -0.032742 -0.992828 -0.085116 0.083590
-0.481050 -0.099112 0.167065 -0.040559 -0.355876 0.933622
-0.455710 -0.016907 0.136127 -0.193945 0.309976 0.930723
0.455710 -0.016907 0.136127 0.193945 0.309976 0.930723
0.481050 -0.099112 0.167065 0.040559 -0.355876 0.933622
-0.438733 -0.044934 0.035298 0.217109 -0.090060 -0.971954
0.438733 -0.044934 0.035298 -0.217109 -0.090060 -0.971954
-0.235422 -0.413621 -0.010177 -0.985168 0.072542 0.155309
-0.205615 -0.529687 0.037583 -0.273537 -0.107028 0.955870
-0.206266 -0.412122 0.049123 -0.714805 -0.078005 0.694937
0.206266 -0.412122 0.049123 0.714805 -0.078005 0.694937
0.205615 -0.529687 0.037583 0.273537 -0.107028 0.955870
0.235422 -0.413621 -0.010177 0.985168 0.072542 0.155309
-0.227624 -0.834007 -0.086090 -0.255715 -0.125217 -0.958586
-0.222862 -0.596205 -0.133544 -0.282205 0.045686 -0.958251
-0.156784 -0.614583 -0.122736 0.637928 -0.079745 -0.765954
0.156784 -0.614583 -0.122736 -0.637928 -0.079745 -0.765954
0.222862 -0.596205 -0.133544 0.282205 0.045686 -0.958251
0.227624 -0.834007 -0.086090 0.255715 -0.125217 -0.958586
-0.268149 -0.568604 -0.090066 -0.855495 0.149693 -0.495651
-0.220557 -0.401365 -0.062944 -0.697195 0.137791 -0.703482
0.220557 -0.401365 -0.062944 0.697195 0.137791 -0.703482
0.268149 -0.568604 -0.090066 0.855495 0.149693 -0.495651
-0.481392 -0.055827 0.147886 -0.820460 0.335490 0.462844
-0.487963 -0.099109 0.158867 -0.901059 -0.405408 0.153996
0.487963 -0.099109 0.158867 0.901059 -0.405408 0.153996
0.481392 -0.055827 0.147886 0.820460 0.335490 0.462844
-0.254860 -0.982895 0.203566 0.710868 -0.624317 0.323740
0.254860 -0.982895 0.203566 -0.710868 -0.624317 0.323740
-0.281195 -0.599428 -0.032213 -0.963500 0.065554 0.259529
0.281195 -0.599428 -0.032213 0.963500 0.065554 0.259529
0.000000 0.872133 -0.127841 0.000000 -0.322092 -0.946684
-0.056701 0.801361 -0.069872 -0.668050 -0.256539 -0.698447
0.056701 0.801361 -0.069872 0.668050 -0.256539 -0.698447
-0.091801 0.910622 -0.062846 -0.992157 0.078372 -0.097324
0.091801 0.910622 -0.062846 0.992157 0.078372 -0.097324
-0.208416 -0.944211 0.036298 0.991852 0.002747 0.127171
0.208416 -0.944211 0.036298 -0.991852 0.002747 0.127171
-0.082333 0.200313 -0.105216 -0.313639 0.180456 -0.932218
-0.033308 0.220529 -0.112693 -0.054750 0.142857 -0.988220
0.033308 0.220529 -0.112693 0.054750 0.142857 -0.988220
0.082333 0.200313 -0.105216 0.313639 0.180456 -0.932218
0.000000 0.110248 -0.136828 0.000000 0.224738 -0.974395
0.000000 -0.021902 -0.080178 0.000000 -0.916501 -0.400006
-0.434811 0.101359 0.086623 -0.766289 0.463851 0.444502
-0.391801 0.335361 0.027856 -0.551988 0.380627 0.741874
-0.384747 0.376785 -0.041759 -0.917447 0.176916 -0.356273
0.384747 0.376785 -0.041759 0.917447 0.176916 -0.356273
0.391801 0.335361 0.027856 0.551988 0.380627 0.741874
0.434811 0.101359 0.086623 0.766289 0.463851 0.444502
-0.158804 -0.018181 -0.107497 0.460982 -0.559282 -0.688955
-0.168869 -0.180884 -0.106620 -0.396832 -0.029633 -0.917386
0.168869 -0.180884 -0.106620 0.396832 -0.029633 -0.917386
0.158804 -0.018181 -0.107497 -0.460982 -0.559282 -0.688955
-0.276570 -0.928942 0.043259 -0.740135 0.665792 0.094119
-0.269566 -0.988424 -0.072396 -0.767083 -0.377697 -0.518540
-0.325948 -0.974843 0.111586 -0.967132 0.226112 -0.116123
0.325948 -0.974843 0.111586 0.967132 0.226112 -0.116123
0.269566 -0.988424 -0.072396 0.767083 -0.377697 -0.518540
0.276570 -0.928942 0.043259 0.740135 0.665792 0.094119
-0.113229 0.051383 -0.153656 -0.413404 -0.003082 -0.910520
0.113229 0.051383 -0.153656 0.413404 -0.003082 -0.910520
-0.254824 0.617977 0.013075 -0.521622 0.453719 0.722495
-0.225107 0.544110 0.026593 -0.202460 -0.133396 0.970153
0.225107 0.544110 0.026593 0.202460 -0.133396 0.970153
0.254824 0.617977 0.013075 0.521622 0.453719 0.722495
0.000000 0.963887 0.063402 0.000000 0.747185 0.664571
0.000000 0.903467 0.085685 0.000000 0.135990 0.990692
-0.409101 0.097838 0.094668 0.645863 0.410810 0.643483
-0.397412 0.057657 0.070977 0.994934 0.020234 0.098392
0.397412 0.057657 0.070977 -0.994934 0.020234 0.098392
0.409101 0.097838 0.094668 -0.645863 0.410810 0.643483
-0.320833 0.309215 -0.075936 0.472762 -0.406995 -0.781549
-0.446532 0.067382 0.066138 -0.963012 0.198920 -0.181616
0.446532 0.067382 0.066138 0.963012 0.198920 -0.181616
0.320833 0.309215 -0.075936 -0.472762 -0.406995 -0.781549
-0.277762 -0.897542 -0.046128 -0.945402 -0.051119 -0.321818
-0.227124 -0.924585 -0.087371 0.001953 0.106235 -0.994324
0.227124 -0.924585 -0.087371 -0.001953 0.106235 -0.994324
0.277762 -0.897542 -0.046128 0.945402 -0.051119 -0.321818
-0.286062 -0.989518 0.194104 -0.452956 -0.858119 -0.241707
0.286062 -0.989518 0.194104 0.452956 -0.858119 -0.241707
-0.199301 -0.991338 0.164119 0.867061 -0.481826 0.126591
0.199301 -0.991338 0.164119 -0.867061 -0.481826 0.126591
-0.467262 -0.059609 0.079485 -0.961577 0.189428 0.198614
0.467262 -0.059609 0.079485 0.961577 0.189428 0.198614
-0.204118 0.512124 -0.066141 -0.173040 -0.967193 -0.185827
0.204118 0.512124 -0.066141 0.173040 -0.967193 -0.185827
-0.289862 0.388297 -0.023565 0.830378 -0.430250 0.353954
-0.308882 0.306672 -0.024161 0.945616 -0.266060 0.186987
0.308882 0.306672 -0.024161 -0.945616 -0.266060 0.186987
0.289862 0.388297 -0.023565 -0.830378 -0.430250 0.353954
-0.461943 -0.010897 0.086263 -0.987701 0.069094 -0.140141
0.461943 -0.010897 0.086263 0.987701 0.069094 -0.140141
-0.458727 -0.081037 0.113958 0.927183 -0.267037 0.262673
-0.470353 -0.075796 0.123140 -0.038484 0.187567 0.981475
-0.469020 -0.118823 0.130410 0.580218 -0.412641 0.702170
0.469020 -0.118823 0.130410 -0.580218 -0.412641 0.702170
0.470353 -0.075796 0.123140 0.038484 0.187567 0.981475
0.458727 -0.081037 0.113958 -0.927183 -0.267037 0.262673
-0.241762 -0.999668 0.231399 -0.253670 -0.942808 0.216102
-0.238821 -0.979165 0.251185 -0.214393 0.263375 0.940550
-0.253155 -0.981499 0.230528 -0.968902 0.187719 0.161107
0.253155 -0.981499 0.230528 0.968902 0.187719 0.161107
0.238821 -0.979165 0.251185 0.214393 0.263375 0.940550
0.241762 -0.999668 0.231399 0.253670 -0.942808 0.216102
-0.177869 0.180017 -0.012057 -0.974273 0.201086 0.101688
-0.167457 0.123086 0.039977 -0.787378 0.141667 0.599933
0.167457 0.123086 0.039977 0.787378 0.141667 0.599933
0.177869 0.180017 -0.012057 0.974273 0.201086 0.101688
-0.051488 0.465508 0.099027 -0.112003 -0.122715 0.986084
0.000000 0.539812 0.085956 0.000000 0.170263 0.985382
0.051488 0.465508 0.099027 0.112003 -0.122715 0.986084
-0.325001 0.358056 0.008937 0.468093 -0.160375 0.868984
0.325001 0.358056 0.008937 -0.468093 -0.160375 0.868984
-0.044810 -0.068118 -0.070278 0.777215 -0.470992 -0.417188
-0.101969 -0.053325 -0.116706 0.061708 -0.303629 -0.950774
0.101969 -0.053325 -0.116706 -0.061708 -0.303629 -0.950774
0.044810 -0.068118 -0.070278 -0.777215 -0.470992 -0.417188
0.000000 0.210061 0.105177 0.054872 -0.018250 0.998321
0.000000 0.252443 0.096162 0.227699 0.165716 0.959502
-0.035401 0.313090 0.102965 -0.242775 0.074313 0.967223
0.035401 0.313090 0.102965 0.242775 0.074313 0.967223
-0.267868 -0.896595 0.012775 -0.878780 0.240761 0.412000
-0.266736 -0.941675 -0.049983 -0.923521 0.080508 -0.374981
0.266736 -0.941675 -0.049983 0.923521 0.080508 -0.374981
0.267868 -0.896595 0.012775 0.878780 0.240761 0.412000
-0.028177 0.843789 0.083215 -0.553026 0.049623 0.831660
0.000000 0.843258 0.119510 0.310251 -0.075655 0.947630
0.000000 0.888538 0.083641 0.000000 0.037416 0.999298
0.028177 0.843789 0.083215 0.553026 0.049623 0.831660
-0.477669 -0.126604 0.112104 -0.012329 -0.797266 -0.603473
0.477669 -0.126604 0.112104 0.012329 -0.797266 -0.603473
-0.146634 0.287802 -0.048769 -0.887661 -0.011414 -0.460311
0.146634 0.287802 -0.048769 0.887661 -0.011414 -0.460311
-0.126850 0.088177 0.067713 -0.013764 0.213141 0.976897
-0.193741 -0.079233 0.062329 -0.677084 0.100955 0.728935
0.193741 -0.079233 0.062329 0.677084 0.100955 0.728935
0.126850 0.088177 0.067713 0.013764 0.213141 0.976897
0.000000 0.748260 -0.082180 1.000000 0.000000 0.000000
0.000000 0.739873 -0.091571 0.122532 0.396527 -0.909787
0.000000 0.788670 -0.086873 0.035127 -0.210303 -0.976989
-0.415602 0.015934 0.184697 0.386334 0.589190 0.709616
-0.418748 0.022071 0.144276 0.522080 -0.842708 -0.131199
0.418748 0.022071 0.144276 -0.522080 -0.842708 -0.131199
0.415602 0.015934 0.184697 -0.386334 0.589190 0.709616
-0.435589 -0.087474 0.053424 0.782617 -0.214972 0.584155
-0.442588 -0.103197 0.040694 0.161229 -0.832026 -0.530747
0.442588 -0.103197 0.040694 -0.161229 -0.832026 -0.530747
0.435589 -0.087474 0.053424 -0.782617 -0.214972 0.584155
-0.330079 -0.989587 0.166414 -0.876492 0.175085 0.448378
-0.316256 -0.987744 0.174004 0.384838 0.231178 0.893521
-0.315182 -0.973667 0.142755 -0.644948 0.742271 0.181738
0.315182 -0.973667 0.142755 0.644948 0.742271 0.181738
0.316256 -0.987744 0.174004 -0.384838 0.231178 0.893521
0.330079 -0.989587 0.166414 0.876492 0.175085 0.448378
-0.271922 -0.831879 -0.034654 -0.989441 0.075350 -0.123753
0.271922 -0.831879 -0.034654 0.989441 0.075350 -0.123753
-0.151978 -0.527231 0.017485 0.703513 -0.227271 0.673330
-0.167318 -0.435724 0.065976 0.139927 -0.247078 0.958831
0.167318 -0.435724 0.065976 -0.139927 -0.247078 0.958831
0.151978 -0.527231 0.017485 -0.703513 -0.227271 0.673330
-0.304776 -0.989138 0.227441 -0.869472 -0.087802 0.486068
-0.287961 -0.983440 0.232292 0.282968 0.323710 0.902829
0.287961 -0.983440 0.232292 -0.282968 0.323710 0.902829
0.304776 -0.989138 0.227441 0.869472 -0.087802 0.486068
-0.331867 0.543648 -0.055484 -0.901639 0.380413 -0.205573
0.331867 0.543648 -0.055484 0.901639 0.380413 -0.205573
-0.062307 0.726175 -0.014233 -0.971129 -0.126621 0.202124
0.062307 0.726175 -0.014233 0.971129 -0.126621 0.202124
-0.455489 -0.015479 0.061817 -0.795831 -0.138676 -0.589404
0.455489 -0.015479 0.061817 0.795831 -0.138676 -0.589404
-0.258120 -0.997032 0.082861 0.252602 -0.966033 -0.054079
-0.322630 -0.996078 0.139583 -0.535844 -0.839595 -0.088931
0.322630 -0.996078 0.139583 0.535844 -0.839595 -0.088931
0.258120 -0.997032 0.082861 -0.252602 -0.966033 -0.054079
-0.229894 -0.997690 -0.096762 0.026063 -0.581286 -0.813257
0.229894 -0.997690 -0.096762 -0.026063 -0.581286 -0.813257
-0.453042 0.026232 0.118304 -0.862850 0.273690 0.424879
-0.432344 0.051199 0.157931 -0.439192 0.590320 0.677206
0.432344 0.051199 0.157931 0.439192 0.590320 0.677206
0.453042 0.026232 0.118304 0.862850 0.273690 0.424879
-0.479535 -0.065061 0.135427 -0.856380 -0.074740 -0.510880
-0.460226 -0.012516 0.106711 -0.963591 0.060244 -0.260445
0.460226 -0.012516 0.106711 0.963591 0.060244 -0.260445
0.479535 -0.065061 0.135427 0.856380 -0.074740 -0.510880
-0.133510 -0.625586 -0.036530 0.974425 -0.182653 0.130802
-0.127598 -0.492138 -0.040196 0.970733 -0.131718 -0.200781
0.127598 -0.492138 -0.040196 -0.970733 -0.131718 -0.200781
0.133510 -0.625586 -0.036530 -0.974425 -0.182653 0.130802
-0.238587 -0.241068 0.010234 -0.979675 0.023316 0.199164
0.238587 -0.241068 0.010234 0.979675 0.023316 0.199164
-0.322757 -1.002544 0.166446 -0.074343 -0.923185 0.377056
0.322757 -1.002544 0.166446 0.074343 -0.923185 0.377056
-0.187778 0.510542 -0.106659 -0.491562 -0.423200 -0.761071
-0.079431 0.504272 -0.151017 -0.189734 -0.138218 -0.972045
-0.118130 0.383110 -0.124021 -0.421186 -0.266579 -0.866878
0.118130 0.383110 -0.124021 0.421186 -0.266579 -0.866878
0.079431 0.504272 -0.151017 0.189734 -0.138218 -0.972045
0.187778 0.510542 -0.106659 0.491562 -0.423200 -0.761071
-0.360841 0.354062 -0.086861 -0.247688 0.121982 -0.961119
-0.360487 0.381415 -0.075249 -0.528764 0.332194 -0.781030
0.360487 0.381415 -0.075249 0.528764 0.332194 -0.781030
0.360841 0.354062 -0.086861 0.247688 0.121982 -0.961119
-0.043230 0.786008 0.070749 -0.660817 -0.317118 0.680227
-0.046753 0.870780 0.072288 -0.418226 0.334819 0.844356
0.046753 0.870780 0.072288 0.418226 0.334819 0.844356
0.043230 0.786008 0.070749 0.660817 -0.317118 0.680227
-0.405322 -0.007309 0.192719 0.859432 -0.275643 0.430525
0.405322 -0.007309 0.192719 -0.859432 -0.275643 0.430525
-0.454290 -0.043944 0.086522 -0.518601 0.071291 0.852016
-0.447647 -0.072058 0.083628 0.802637 -0.196570 0.563128
-0.439933 -0.033787 0.090194 0.904599 -0.285684 0.316294
0.439933 -0.033787 0.090194 -0.904599 -0.285684 0.316294
0.447647 -0.072058 0.083628 -0.802637 -0.196570 0.563128
0.454290 -0.043944 0.086522 0.518601 0.071291 0.852016
-0.239946 -0.992463 0.193473 -0.602557 -0.783349 0.152379
0.239946 -0.992463 0.193473 0.602557 -0.783349 0.152379
-0.427718 -0.011393 0.196742 -0.471084 -0.161626 0.867122
-0.437689 0.011449 0.172354 -0.980468 -0.123264 0.153050
0.437689 0.011449 0.172354 0.980468 -0.123264 0.153050
0.427718 -0.011393 0.196742 0.471084 -0.161626 0.867122
0.000000 0.580299 -0.151856 0.000000 0.134587 -0.990875
-0.082183 0.673027 -0.132939 -0.134953 0.485458 -0.863735
0.082183 0.673027 -0.132939 0.134953 0.485458 -0.863735
-0.227506 0.518437 -0.103849 0.016633 -0.452895 -0.891385
0.227506 0.518437 -0.103849 -0.016633 -0.452895 -0.891385
-0.210108 -0.986689 0.193125 0.847041 -0.472274 0.243782
0.210108 -0.986689 0.193125 -0.847041 -0.472274 0.243782
-0.272998 -0.970374 0.202529 -0.846980 0.516923 0.124119
-0.264343 -0.969291 0.171214 0.058199 0.962188 0.266060
0.264343 -0.969291 0.171214 -0.058199 0.962188 0.266060
0.272998 -0.970374 0.202529 0.846980 0.516923 0.124119
-0.360702 0.312936 0.026700 0.375683 0.130955 0.917417
0.360702 0.312936 0.026700 -0.375683 0.130955 0.917417
-0.394689 0.030468 0.042847 0.951445 -0.240547 -0.191931
0.394689 0.030468 0.042847 -0.951445 -0.240547 -0.191931
-0.466249 -0.004115 0.114177 -0.964507 0.167089 -0.204321
0.466249 -0.004115 0.114177 0.964507 0.167089 -0.204321
-0.434840 0.020842 0.132125 -0.449751 -0.585589 0.674367
0.434840 0.020842 0.132125 0.449751 -0.585589 0.674367
-0.254853 -0.966090 0.194345 0.434034 0.855159 0.283303
0.254853 -0.966090 0.194345 -0.434034 0.855159 0.283303
-0.081362 0.854644 -0.054152 -0.941923 -0.258034 -0.214820
0.081362 0.854644 -0.054152 0.941923 -0.258034 -0.214820
-0.263318 -0.988099 0.242039 0.546251 -0.026460 0.837184
0.263318 -0.988099 0.242039 -0.546251 -0.026460 0.837184
-0.072035 -0.307424 0.018097 0.925138 -0.238136 0.295541
-0.052250 -0.221882 -0.044236 0.923368 -0.184729 -0.336528
0.052250 -0.221882 -0.044236 -0.923368 -0.184729 -0.336528
0.072035 -0.307424 0.018097 -0.925138 -0.238136 0.295541
-0.447462 -0.031750 0.114955 0.896573 -0.348918 0.272683
0.447462 -0.031750 0.114955 -0.896573 -0.348918 0.272683
-0.305530 -0.993133 0.168805 -0.580889 -0.812555 -0.048006
-0.301993 -0.990385 0.210511 0.238411 -0.231452 0.943144
0.301993 -0.990385 0.210511 -0.238411 -0.231452 0.943144
0.305530 -0.993133 0.168805 0.580889 -0.812555 -0.048006
-0.304509 0.432370 0.037965 0.283975 -0.205451 0.936552
0.304509 0.432370 0.037965 -0.283975 -0.205451 0.936552
-0.030362 -0.048748 0.030036 0.705985 -0.541307 0.456648
0.030362 -0.048748 0.030036 -0.705985 -0.541307 0.456648
-0.311449 -0.972094 0.169652 -0.760308 0.570818 0.309915
-0.310662 -0.987543 0.150279 -0.203009 -0.596851 0.776208
0.310662 -0.987543 0.150279 0.203009 -0.596851 0.776208
0.311449 -0.972094 0.169652 0.760308 0.570818 0.309915
-0.158704 -0.424412 -0.075577 0.238136 -0.002625 -0.971221
0.158704 -0.424412 -0.075577 -0.238136 -0.002625 -0.971221
-0.453416 -0.125409 0.087311 0.549516 -0.800623 0.238685
0.453416 -0.125409 0.087311 -0.549516 -0.800623 0.238685
-0.070020 0.314133 -0.114457 -0.246406 -0.169561 -0.954192
0.070020 0.314133 -0.114457 0.246406 -0.169561 -0.954192
-0.020346 0.880116 0.070237 -0.358623 -0.112644 0.926633
0.020346 0.880116 0.070237 0.358623 -0.112644 0.926633
-0.277496 -0.999608 0.232081 -0.446242 -0.886410 0.122929
0.277496 -0.999608 0.232081 0.446242 -0.886410 0.122929
0.000000 0.746141 0.070103 0.000000 -0.968749 0.247963
-0.063525 0.774168 0.024503 -0.784753 -0.604877 0.135166
0.063525 0.774168 0.024503 0.784753 -0.604877 0.135166
-0.345986 0.435927 0.035029 -0.471084 0.137150 0.871334
0.345986 0.435927 0.035029 0.471084 0.137150 0.871334
-0.080828 0.829033 -0.012011 -0.966216 -0.257485 -0.007965
0.080828 0.829033 -0.012011 0.966216 -0.257485 -0.007965
0.000000 0.748418 0.038138 0.000000 -0.847926 0.530076
-0.386464 0.394267 0.002771 -0.858791 0.179510 0.479781
0.386464 0.394267 0.002771 0.858791 0.179510 0.479781
0.000000 0.755212 0.094055 0.000000 -0.514054 0.857723
-0.042817 0.580102 0.086970 0.030549 0.374554 0.926695
-0.160320 0.612058 0.044022 -0.207526 0.467269 0.859401
0.160320 0.612058 0.044022 0.207526 0.467269 0.859401
0.042817 0.580102 0.086970 -0.030549 0.374554 0.926695
-0.290297 0.552547 -0.000788 -0.597400 0.318705 0.735862
0.290297 0.552547 -0.000788 0.597400 0.318705 0.735862
-0.316098 -0.984298 0.203688 -0.749168 0.151830 0.644704
0.316098 -0.984298 0.203688 0.749168 0.151830 0.644704
-0.006645 0.825757 0.095192 -0.446181 -0.461837 0.766564
-0.006408 0.838209 0.098325 -0.710715 -0.469588 0.523759
0.006408 0.838209 0.098325 0.710715 -0.469588 0.523759
0.006645 0.825757 0.095192 0.446181 -0.461837 0.766564
-0.276335 -0.967199 0.183023 0.275948 0.856685 0.435743
0.276335 -0.967199 0.183023 -0.275948 0.856685 0.435743
-0.486192 -0.124913 0.126862 -0.678121 -0.593097 0.433973
0.486192 -0.124913 0.126862 0.678121 -0.593097 0.433973
-0.239998 -0.969374 0.177133 -0.233192 0.880612 0.412458
0.239998 -0.969374 0.177133 0.233192 0.880612 0.412458
-0.152736 0.578041 -0.133868 -0.255135 -0.001343 -0.966887
0.152736 0.578041 -0.133868 0.255135 -0.001343 -0.966887
0.000000 0.256873 -0.106747 0.000000 0.013947 -0.999878
-0.051056 0.571097 -0.163435 -0.003967 0.066378 -0.997772
0.051056 0.571097 -0.163435 0.003967 0.066378 -0.997772
-0.426340 -0.020474 0.189716 -0.245705 -0.967650 0.057192
0.426340 -0.020474 0.189716 0.245705 -0.967650 0.057192
-0.485624 -0.100090 0.120327 -0.966338 0.122440 0.226173
0.485624 -0.100090 0.120327 0.966338 0.122440 0.226173
-0.102621 -0.413561 0.008729 0.895901 -0.315073 0.313120
0.102621 -0.413561 0.008729 -0.895901 -0.315073 0.313120
-0.117993 -0.236078 -0.107330 0.302042 -0.164769 -0.938932
0.117993 -0.236078 -0.107330 -0.302042 -0.164769 -0.938932
-0.278615 -0.985062 0.238204 -0.685934 0.365337 0.629261
0.278615 -0.985062 0.238204 0.685934 0.365337 0.629261
0.000000 0.331403 0.095573 0.000000 -0.116916 0.993133
-0.287058 -1.000482 0.218452 0.209418 -0.958098 0.195349
0.287058 -1.000482 0.218452 -0.209418 -0.958098 0.195349
0.000000 0.781861 0.085006 0.000000 0.073031 0.997314
-0.465508 -0.085480 0.101935 0.393872 -0.368084 -0.842219
0.465508 -0.085480 0.101935 -0.393872 -0.368084 -0.842219
0.000000 0.825761 0.092957 0.174078 -0.618305 0.766381
0.000000 0.809749 0.090313 0.000000 -0.140110 0.990112
-0.478917 -0.083469 0.104538 -0.740501 0.015656 -0.671834
0.478917 -0.083469 0.104538 0.740501 0.015656 -0.671834
0.000000 0.245828 0.083976 1.000000 0.000000 0.000000
0.000000 0.830027 0.110306 0.691946 -0.471328 0.546800
0.000000 0.836403 0.098823 1.000000 0.000000 0.000000
0.000000 0.798639 0.088779 0.000000 -0.195563 0.980682
3 0 1 2
3 3 4 5
3 6 7 8
3 9 10 11
3 12 13 14
3 15 16 17
3 18 8 19
3 20 9 21
3 22 23 24
3 25 26 27
3 28 29 30
3 31 32 33
3 34 35 36
3 37 38 39
3 40 41 42
3 42 43 40
3 44 45 46
3 47 48 49
3 50 51 52
3 53 54 55
3 56 57 58
3 59 60 61
3 62 63 64
3 65 66 67
3 46 68 69
3 70 71 47
3 1 0 72
3 73 5 4
3 74 75 76
3 77 78 79
3 80 81 40
3 40 82 80
3 83 0 84
3 85 5 86
3 87 88 89
3 90 91 92
3 93 94 95
3 95 96 93
3 24 97 22
3 27 98 25
3 99 100 101
3 102 103 104
3 105 106 107
3 108 106 105
3 109 110 111
3 112 113 114
3 115 116 117
3 118 119 120
3 121 122 123
3 124 125 126
3 106 127 107
3 108 127 106
3 123 128 129
3 130 131 124
3 69 99 132
3 132 104 70
3 133 134 135
3 136 137 138
3 139 140 141
3 142 143 144
3 145 30 146
3 147 31 148
3 1 72 149
3 150 73 4
3 56 58 107
3 108 59 61
3 151 152 153
3 154 155 156
3 157 158 159
3 160 161 162
3 158 163 164
3 165 166 161
3 167 168 145
3 148 169 170
3 18 19 171
3 172 20 21
3 151 163 173
3 174 166 156
3 110 140 111
3 112 143 113
3 175 176 81
3 82 177 175
3 178 35 14
3 15 38 179
3 50 52 180
3 181 53 55
3 84 149 117
3 118 150 85
3 182 183 134
3 137 184 185
3 135 186 187
3 187 186 136
3 111 140 139
3 144 143 112
3 188 189 190
3 191 192 193
3 183 186 135
3 136 186 184
3 75 194 195
3 196 197 78
3 198 199 200
3 201 202 203
3 204 74 182
3 185 79 205
3 206 207 45
3 48 208 209
3 210 14 211
3 211 15 210
3 212 213 116
3 119 214 215
3 216 115 217
3 218 120 219
3 220 157 221
3 222 162 223
3 18 224 8
3 9 225 21
3 226 180 62
3 67 181 227
3 228 24 23
3 26 25 229
3 68 230 69
3 70 231 71
3 216 232 233
3 234 235 219
3 115 236 217
3 218 237 120
3 238 239 240
3 241 242 243
3 244 245 246
3 247 248 249
3 101 250 251
3 252 253 102
3 44 254 255
3 255 256 49
3 257 116 233
3 234 119 258
3 41 40 81
3 82 40 43
3 133 259 260
3 261 262 138
3 263 264 265
3 266 264 263
3 267 220 268
3 269 223 270
3 271 272 273
3 273 272 274
3 240 275 238
3 243 276 241
3 277 74 250
3 253 79 278
3 13 211 14
3 15 211 16
3 279 251 280
3 281 252 282
3 283 284 285
3 221 268 220
3 223 269 222
3 213 286 287
3 288 289 214
3 290 291 149
3 150 292 293
3 294 295 296
3 297 298 299
3 300 173 163
3 166 174 301
3 302 303 152
3 155 304 305
3 306 307 6
3 11 308 309
3 302 152 109
3 114 155 305
3 310 206 121
3 126 209 311
3 88 87 312
3 313 92 91
3 72 314 115
3 120 315 73
3 207 68 45
3 48 71 208
3 51 316 317
3 318 319 54
3 123 89 88
3 91 90 124
3 14 41 178
3 179 43 15
3 51 199 320
3 321 202 54
3 322 323 188
3 193 324 325
3 29 326 327
3 328 329 32
3 302 330 331
3 332 333 305
3 334 153 57
3 60 154 335
3 295 294 336
3 337 299 298
3 338 339 340
3 341 342 343
3 152 151 173
3 174 156 155
3 210 42 14
3 15 42 210
3 204 75 74
3 79 78 205
3 216 344 345
3 346 347 219
3 348 271 349
3 350 274 351
3 149 84 290
3 293 85 150
3 175 285 176
3 177 285 175
3 245 63 246
3 247 66 248
3 286 352 287
3 288 353 289
3 279 280 56
3 61 281 282
3 316 50 226
3 227 55 319
3 354 355 356
3 357 358 359
3 151 153 334
3 335 154 156
3 13 273 211
3 211 273 16
3 194 260 195
3 196 261 197
3 244 246 360
3 361 247 249
3 362 286 363
3 364 289 365
3 348 349 34
3 39 350 351
3 366 367 284
3 284 368 366
3 345 190 369
3 370 191 346
3 254 46 69
3 70 47 256
3 198 268 199
3 202 269 203
3 29 28 168
3 169 33 32
3 371 360 226
3 227 361 372
3 373 374 18
3 21 375 376
3 164 163 151
3 156 166 165
3 377 189 212
3 215 192 378
3 100 250 101
3 102 253 103
3 84 117 379
3 380 118 85
3 327 326 381
3 382 329 328
3 323 322 383
3 384 325 324
3 344 188 190
3 191 193 347
3 19 385 171
3 172 386 20
3 286 362 352
3 353 365 289
3 57 56 280
3 281 61 60
3 81 387 178
3 179 388 82
3 171 385 389
3 390 386 172
3 391 331 392
3 393 332 394
3 41 81 178
3 179 82 43
3 88 285 284
3 284 285 91
3 135 187 133
3 138 187 136
3 63 245 64
3 65 248 66
3 221 141 52
3 53 142 222
3 322 381 167
3 170 382 325
3 88 176 285
3 285 177 91
3 157 159 141
3 142 160 162
3 83 383 395
3 396 384 86
3 397 8 398
3 399 9 400
3 34 12 14
3 15 17 39
3 159 139 141
3 142 144 160
3 158 300 163
3 166 301 161
3 141 140 180
3 181 143 142
3 228 314 24
3 25 315 229
3 236 115 314
3 315 120 237
3 257 232 401
3 402 235 258
3 403 392 259
3 262 393 404
3 397 405 406
3 407 408 400
3 409 159 158
3 161 160 410
3 385 374 373
3 376 375 386
3 97 355 411
3 412 358 98
3 123 129 121
3 126 130 124
3 109 267 110
3 113 270 114
3 239 238 395
3 396 243 242
3 158 164 409
3 410 165 161
3 413 74 277
3 278 79 414
3 277 250 100
3 103 253 278
3 322 217 381
3 382 218 325
3 199 221 320
3 321 222 202
3 217 322 188
3 193 325 218
3 395 383 30
3 31 384 396
3 349 271 415
3 416 274 350
3 417 171 389
3 390 172 418
3 415 273 13
3 16 273 416
3 419 348 420
3 421 351 419
3 35 34 14
3 15 39 38
3 356 355 83
3 86 358 357
3 206 122 121
3 126 125 209
3 190 128 369
3 370 131 191
3 204 182 134
3 137 185 205
3 401 422 257
3 258 423 402
3 12 349 415
3 416 350 17
3 322 146 383
3 384 147 325
3 159 409 331
3 332 410 160
3 251 279 101
3 102 282 252
3 395 30 29
3 32 31 396
3 263 101 127
3 127 102 263
3 232 257 233
3 234 258 235
3 420 424 94
3 96 425 421
3 420 94 426
3 426 96 421
3 24 314 83
3 86 315 25
3 336 317 406
3 407 318 337
3 46 254 44
3 49 256 47
3 427 377 257
3 258 378 428
3 190 189 427
3 428 192 191
3 429 348 419
3 419 351 429
3 430 431 45
3 48 432 433
3 434 401 207
3 208 402 435
3 22 411 23
3 26 412 27
3 397 398 436
3 437 399 400
3 271 438 439
3 440 441 274
3 173 300 109
3 114 301 174
3 294 317 336
3 337 318 299
3 303 58 57
3 60 59 304
3 123 284 367
3 368 284 124
3 307 18 442
3 443 21 308
3 228 354 314
3 315 359 229
3 444 275 240
3 241 276 445
3 19 446 385
3 386 447 20
3 446 63 62
3 67 66 447
3 221 157 141
3 142 162 222
3 68 46 45
3 48 47 71
3 110 374 446
3 447 375 113
3 18 171 373
3 376 172 21
3 74 76 250
3 253 77 79
3 146 322 167
3 170 325 147
3 338 369 448
3 449 370 343
3 187 259 133
3 138 262 187
3 442 6 307
3 308 11 443
3 413 183 182
3 185 184 414
3 123 122 89
3 90 125 124
3 6 442 7
3 10 443 11
3 381 326 167
3 170 329 382
3 213 212 286
3 289 215 214
3 420 34 424
3 425 39 421
3 360 63 446
3 447 66 361
3 446 19 360
3 361 20 447
3 97 24 83
3 86 25 98
3 173 109 152
3 155 114 174
3 373 171 417
3 418 172 376
3 217 344 216
3 219 347 218
3 377 116 257
3 258 119 378
3 164 334 75
3 78 335 165
3 330 302 111
3 112 305 333
3 430 95 87
3 92 95 433
3 286 212 323
3 324 215 289
3 366 450 451
3 452 450 366
3 352 362 453
3 454 365 353
3 360 316 226
3 227 319 361
3 128 190 310
3 311 191 131
3 200 294 296
3 297 299 201
3 385 446 374
3 375 447 386
3 68 401 232
3 235 402 71
3 139 159 330
3 333 160 144
3 101 263 99
3 104 263 102
3 451 450 339
3 342 450 452
3 455 444 239
3 242 445 456
3 406 296 295
3 298 297 407
3 198 110 267
3 270 113 203
3 340 277 338
3 343 278 341
3 300 267 109
3 114 270 301
3 302 331 457
3 458 332 305
3 354 228 23
3 26 229 359
3 338 230 369
3 370 231 343
3 28 145 168
3 169 148 33
3 379 117 116
3 119 118 380
3 1 149 291
3 292 150 4
3 216 369 230
3 231 370 219
3 200 199 51
3 54 202 201
3 122 206 431
3 432 209 125
3 391 457 331
3 332 458 394
3 326 29 167
3 170 32 329
3 344 190 345
3 346 191 347
3 64 245 244
3 249 248 65
3 377 427 189
3 192 428 378
3 250 76 251
3 252 77 253
3 397 406 8
3 9 407 400
3 233 116 216
3 219 119 234
3 207 206 434
3 435 209 208
3 448 451 339
3 342 452 449
3 259 392 459
3 460 393 262
3 459 409 164
3 165 410 460
3 1 291 2
3 3 292 4
3 461 417 389
3 390 418 462
3 97 411 22
3 27 412 98
3 88 284 123
3 124 284 91
3 360 19 316
3 319 20 361
3 188 212 189
3 192 215 193
3 383 363 323
3 324 364 384
3 164 151 334
3 335 156 165
3 2 291 290
3 293 292 3
3 463 132 265
3 266 132 463
3 204 133 260
3 261 138 205
3 62 371 226
3 227 372 67
3 224 18 464
3 465 21 225
3 455 275 444
3 445 276 456
3 159 331 330
3 333 332 160
3 348 34 420
3 421 39 351
3 204 194 75
3 78 197 205
3 57 280 334
3 335 281 60
3 392 331 459
3 460 332 393
3 464 18 307
3 308 21 465
3 110 62 180
3 181 67 113
3 430 122 431
3 432 125 433
3 236 327 217
3 218 328 237
3 459 331 409
3 410 332 460
3 236 314 354
3 359 315 237
3 306 224 464
3 465 225 309
3 369 216 345
3 346 219 370
3 450 183 413
3 414 184 450
3 81 176 387
3 388 177 82
3 206 45 431
3 432 48 209
3 259 187 403
3 404 187 262
3 123 367 128
3 131 368 124
3 429 466 348
3 351 466 429
3 264 463 265
3 266 463 264
3 405 442 198
3 203 443 408
3 83 84 379
3 380 85 86
3 111 302 109
3 114 305 112
3 94 87 95
3 95 92 96
3 336 406 295
3 298 407 337
3 340 413 277
3 278 414 341
3 135 134 183
3 184 137 136
3 132 99 265
3 266 104 132
3 158 157 300
3 301 162 161
3 99 263 265
3 266 263 104
3 300 220 267
3 270 223 301
3 403 107 58
3 59 108 404
3 238 356 395
3 396 357 243
3 238 275 467
3 468 276 243
3 221 52 320
3 321 53 222
3 349 12 34
3 39 17 350
3 23 355 354
3 359 358 26
3 217 327 381
3 382 328 218
3 461 373 417
3 418 376 462
3 355 97 83
3 86 98 358
3 51 50 316
3 319 55 54
3 403 105 107
3 108 105 404
3 122 430 87
3 92 433 125
3 180 52 141
3 142 53 181
3 69 132 254
3 256 132 70
3 387 176 312
3 313 177 388
3 107 101 279
3 282 102 108
3 436 7 405
3 408 10 437
3 116 377 212
3 215 378 119
3 0 2 290
3 293 3 5
3 415 13 12
3 17 16 416
3 450 413 339
3 342 414 450
3 8 316 19
3 20 319 9
3 406 405 296
3 297 408 407
3 338 448 339
3 342 449 343
3 236 354 356
3 357 359 237
3 363 453 362
3 365 454 364
3 255 430 44
3 49 433 255
3 188 344 217
3 218 347 193
3 64 244 360
3 361 249 65
3 101 107 127
3 127 108 102
3 188 323 212
3 215 324 193
3 246 63 360
3 361 66 247
3 469 438 470
3 470 441 469
3 110 198 374
3 375 203 113
3 81 80 175
3 175 80 82
3 29 168 167
3 170 169 32
3 317 316 8
3 9 319 318
3 363 286 323
3 324 289 364
3 72 0 83
3 86 5 73
3 317 294 200
3 201 299 318
3 312 87 94
3 96 92 313
3 471 275 455
3 456 276 472
3 374 198 442
3 443 203 375
3 186 183 450
3 450 184 186
3 176 88 312
3 313 91 177
3 426 419 420
3 421 419 426
3 236 356 467
3 468 357 237
3 8 224 6
3 11 225 9
3 75 334 76
3 77 335 78
3 442 405 7
3 10 408 443
3 307 306 464
3 465 309 308
3 68 232 230
3 231 235 71
3 216 230 232
3 235 231 219
3 461 385 373
3 376 386 462
3 263 473 264
3 34 36 424
3 425 37 39
3 459 164 195
3 196 165 460
3 303 302 457
3 458 305 304
3 448 367 451
3 452 368 449
3 190 427 310
3 311 428 191
3 100 69 230
3 231 70 103
3 30 145 28
3 33 148 31
3 200 51 317
3 318 54 201
3 238 467 356
3 357 468 243
3 50 180 226
3 227 181 55
3 23 411 355
3 358 412 26
3 255 95 430
3 433 95 255
3 277 100 338
3 343 103 278
3 164 75 195
3 196 78 165
3 471 327 236
3 237 328 472
3 422 401 434
3 435 402 423
3 317 8 406
3 407 9 318
3 236 467 471
3 472 468 237
3 436 405 397
3 400 408 437
3 296 198 200
3 201 203 297
3 167 145 146
3 147 148 170
3 140 110 180
3 181 113 143
3 122 87 89
3 90 92 125
3 83 287 383
3 384 288 86
3 436 398 7
3 10 399 437
3 14 42 41
3 43 42 15
3 459 260 259
3 262 261 460
3 18 374 442
3 443 375 21
3 115 216 116
3 119 219 120
3 255 254 132
3 132 256 255
3 427 257 422
3 423 258 428
3 56 107 279
3 282 108 61
3 52 51 320
3 321 54 53
3 403 391 392
3 393 394 404
3 99 69 100
3 103 70 104
3 239 444 240
3 241 445 242
3 271 273 415
3 416 273 274
3 198 267 268
3 269 270 203
3 366 451 367
3 368 452 366
3 327 395 29
3 32 396 328
3 455 239 327
3 328 242 456
3 35 178 387
3 388 179 38
3 395 356 83
3 86 357 396
3 383 287 363
3 364 288 384
3 303 457 58
3 59 458 304
3 133 204 134
3 137 205 138
3 391 58 457
3 458 59 394
3 303 153 152
3 155 154 304
3 45 44 430
3 433 49 48
3 206 310 434
3 435 311 209
3 314 72 83
3 86 73 315
3 287 453 363
3 364 454 288
3 146 30 383
3 384 31 147
3 204 260 194
3 197 261 205
3 453 287 352
3 353 288 454
3 153 303 57
3 60 304 154
3 64 360 371
3 372 361 65
3 312 94 387
3 388 96 313
3 116 213 379
3 380 214 119
3 296 405 198
3 203 408 297
3 459 195 260
3 261 196 460
3 401 68 207
3 208 71 402
3 438 469 474
3 474 469 441
3 224 306 6
3 11 309 225
3 239 395 327
3 328 396 242
3 93 426 94
3 96 426 93
3 129 128 310
3 311 131 130
3 8 7 398
3 399 10 9
3 128 367 448
3 449 368 131
3 83 213 287
3 288 214 86
3 424 387 94
3 96 388 425
3 461 389 385
3 386 390 462
3 275 471 467
3 468 472 276
3 84 0 290
3 293 5 85
3 340 339 413
3 414 342 341
3 110 446 62
3 67 447 113
3 471 455 327
3 328 456 472
3 111 139 330
3 333 144 112
3 157 220 300
3 301 223 162
3 369 128 448
3 449 131 370
3 230 338 100
3 103 343 231
3 221 199 268
3 269 202 222
3 213 83 379
3 380 86 214
3 422 310 427
3 428 311 423
3 413 182 74
3 79 185 414
3 121 129 310
3 311 130 126
3 371 62 64
3 65 67 372
3 422 434 310
3 311 435 423
3 117 149 72
3 73 150 118
3 115 117 72
3 73 118 120
3 280 76 334
3 335 77 281
3 76 280 251
3 252 281 77
3 58 391 403
3 404 394 59
3 438 474 439
3 440 474 441
3 469 475 474
3 272 439 474
3 474 440 272
3 271 439 272
3 272 440 274
3 348 466 476
3 476 466 351
3 348 476 271
3 274 476 351
3 438 271 476
3 476 274 441
3 438 476 470
3 470 476 441
3 387 424 36
3 37 425 388
3 387 36 35
3 38 37 388
3 475 272 474
3 105 187 404
3 105 403 187
